<?xml version="1.0" encoding="utf-8"?>
<!-- Generator: Adobe Illustrator 16.0.0, SVG Export Plug-In . SVG Version: 6.00 Build 0)  -->
<!DOCTYPE svg PUBLIC "-//W3C//DTD SVG 1.1//EN" "http://www.w3.org/Graphics/SVG/1.1/DTD/svg11.dtd">
<svg version="1.1" id="Layer_1" xmlns="http://www.w3.org/2000/svg" xmlns:xlink="http://www.w3.org/1999/xlink" x="0px" y="0px"
	 width="40px" height="30px" viewBox="5 0.4 40 30" enable-background="new 5 0.4 40 30" xml:space="preserve">
<g>
	<path fill="#19B2A7" d="M23.891,13.438c2.877,1.502,6.584,3.005,10.773,3.735c-0.299,0.51-0.482,1.096-0.482,1.729
		c0,0.249,0.029,0.49,0.08,0.724h10.09c0.049-0.233,0.078-0.475,0.078-0.724c0-1.844-1.451-3.336-3.273-3.424v-1.503h-1v1.486
		h-1.889v-1.486h-1v1.468c-5.695-0.62-10.869-2.523-14.416-4.149c-0.766-1.499-1.588-2.896-2.461-3.837
		c-1.691-1.822-2.402-2.848-3.467-2.848c-1.066,0-3.203,0.761-5.158,4.195C9.811,12.24,6.254,21.546,6.078,27.863h19.504
		c0,0,0.498-9.701-0.746-12.379C24.535,14.841,24.221,14.146,23.891,13.438z M42.01,16.627c0.59,0,1.066,0.479,1.066,1.065
		c0,0.588-0.477,1.065-1.066,1.065c-0.588,0-1.064-0.478-1.064-1.065C40.945,17.105,41.422,16.627,42.01,16.627z M39.393,16.627
		c0.59,0,1.066,0.479,1.066,1.065c0,0.588-0.477,1.065-1.066,1.065c-0.588,0-1.064-0.478-1.064-1.065
		C38.328,17.105,38.805,16.627,39.393,16.627z M36.709,16.627c0.588,0,1.064,0.479,1.064,1.065c0,0.588-0.477,1.065-1.064,1.065
		c-0.59,0-1.066-0.478-1.066-1.065C35.643,17.105,36.119,16.627,36.709,16.627z M35.76,16.017c-0.219,0.141-0.42,0.304-0.6,0.488
		c-4.518-0.731-8.48-2.403-11.449-4.008C26.914,13.876,31.131,15.337,35.76,16.017z"/>
	<path fill="#19B2A7" d="M39.551,20.126h-5.135c0.494,1.295,1.738,2.218,3.207,2.218h1.928V20.126z"/>
	<path fill="#19B2A7" d="M40.051,20.126v2.218h0.939c1.469,0,2.711-0.923,3.205-2.218H40.051z"/>
</g>
</svg>
