<?xml version="1.0" encoding="utf-8"?>
<!-- Generator: Adobe Illustrator 16.0.0, SVG Export Plug-In . SVG Version: 6.00 Build 0)  -->
<!DOCTYPE svg PUBLIC "-//W3C//DTD SVG 1.1//EN" "http://www.w3.org/Graphics/SVG/1.1/DTD/svg11.dtd">
<svg version="1.1" id="Layer_1" xmlns="http://www.w3.org/2000/svg" xmlns:xlink="http://www.w3.org/1999/xlink" x="0px" y="0px"
	 width="40px" height="30px" viewBox="5 -0.489 40 30" enable-background="new 5 -0.489 40 30" xml:space="preserve">
<g>
	<path fill="#19B2A7" d="M25.539,8.207l4.18-3.849c0,0,2.447-1.744,3.162-1.027c0.719,0.715,0,2.568-0.895,3.461
		c-0.896,0.896-3.82,3.879-3.82,3.879l1.191,2.948l0.48-0.499l0.834,0.875l-1.014,1.084l0.656,2.52l0.656-0.497l0.777,1.034
		l-1.133,1l1.252,4.908l-1.014,0.836c0,0-3.939-8.487-6.627-10.243c0,0-3.607,4.206-6.938,5.913l1.379,4.243l-0.732,0.277
		l-6.602-6.37l0.537-0.841l3.926,1.276c0,0,2.301-3.628,5.873-6.91c0,0-1.768-2.541-9.799-6.255l0.643-0.823l5.318,0.823
		l0.893-0.823l0.725,0.569l-0.057,0.659L22.01,7.03l0.844-1.06l0.826,0.821L23.271,7.51L25.539,8.207z"/>
</g>
</svg>
