<?xml version="1.0" encoding="utf-8"?>
<!-- Generator: Adobe Illustrator 16.0.0, SVG Export Plug-In . SVG Version: 6.00 Build 0)  -->
<!DOCTYPE svg PUBLIC "-//W3C//DTD SVG 1.1//EN" "http://www.w3.org/Graphics/SVG/1.1/DTD/svg11.dtd">
<svg version="1.1" id="Layer_1" xmlns="http://www.w3.org/2000/svg" xmlns:xlink="http://www.w3.org/1999/xlink" x="0px" y="0px"
	 width="40px" height="30px" viewBox="5 1.661 40 30" enable-background="new 5 1.661 40 30" xml:space="preserve">
<g>
	<path fill="#19B2A7" d="M36.92,9.219c-0.845,0-1.527,0.685-1.527,1.528v4.588c0,0.842,0.683,1.527,1.527,1.527
		c0.844,0,1.528-0.686,1.528-1.527v-4.588C38.448,9.904,37.764,9.219,36.92,9.219z"/>
	<path fill="#19B2A7" d="M13.587,9.219c-0.845,0-1.527,0.685-1.527,1.528v4.588c0,0.842,0.683,1.527,1.527,1.527
		c0.844,0,1.529-0.686,1.529-1.527v-4.588C15.116,9.904,14.431,9.219,13.587,9.219z"/>
	<path fill="#19B2A7" d="M30.785,4.469h-11.06c-1.191,0-3.651,0.892-3.651,3.649v16.448c0,0.992,0.807,1.801,1.803,1.801h1.849
		v1.729c0,0.843,0.683,1.529,1.527,1.529c0.844,0,1.529-0.687,1.529-1.529v-1.729h0.012h5.219h0.084v1.729
		c0,0.843,0.685,1.529,1.529,1.529c0.843,0,1.527-0.687,1.527-1.529v-1.729h1.478c0.994,0,1.801-0.809,1.801-1.801V8.118
		C34.432,5.697,33.204,4.469,30.785,4.469z M20.688,6.367h9.129c0.401,0,0.723,0.324,0.723,0.723c0,0.401-0.321,0.723-0.723,0.723
		h-9.129c-0.399,0-0.721-0.321-0.721-0.723C19.968,6.691,20.289,6.367,20.688,6.367z M20.647,23.447
		c-0.977,0-1.772-0.793-1.772-1.772c0-0.975,0.796-1.77,1.772-1.77c0.979,0,1.772,0.795,1.772,1.77
		C22.42,22.654,21.626,23.447,20.647,23.447z M29.624,23.447c-0.98,0-1.772-0.793-1.772-1.772c0-0.975,0.792-1.77,1.772-1.77
		s1.772,0.795,1.772,1.77C31.396,22.654,30.604,23.447,29.624,23.447z M32.07,15.418c0,0-1.423,2.706-6.816,2.706
		c-4.887,0-6.694-2.706-6.694-2.706v-5.267H32.07V15.418z"/>
</g>
</svg>
