<?xml version="1.0" encoding="utf-8"?>
<!-- Generator: Adobe Illustrator 16.0.0, SVG Export Plug-In . SVG Version: 6.00 Build 0)  -->
<!DOCTYPE svg PUBLIC "-//W3C//DTD SVG 1.1//EN" "http://www.w3.org/Graphics/SVG/1.1/DTD/svg11.dtd">
<svg version="1.1" id="Layer_1" xmlns="http://www.w3.org/2000/svg" xmlns:xlink="http://www.w3.org/1999/xlink" x="0px" y="0px"
	 width="40px" height="30px" viewBox="0 0 40 30" enable-background="new 0 0 40 30" xml:space="preserve">
<g>
	<path fill="#19B2A7" d="M1.321,24.952c0.766,0,1.096,0.208,1.596,0.532c0.621,0.396,1.473,0.938,3,0.938
		c1.531,0,2.385-0.543,3.01-0.943c0.512-0.329,0.822-0.526,1.588-0.526c0.768,0,1.078,0.197,1.6,0.532
		c0.213,0.136,0.457,0.288,0.742,0.431c0.002,0.001,0.004,0.003,0.006,0.005c0.004,0.002,0.006,0.002,0.01,0.004
		c0.131,0.064,0.271,0.127,0.422,0.186c0.064,0.021,0.127,0.045,0.191,0.062c0.443,0.146,0.969,0.25,1.627,0.25
		c1.531,0,2.383-0.543,3.006-0.942c0.516-0.329,0.825-0.526,1.588-0.526c0.771,0,1.101,0.208,1.604,0.532
		c0.619,0.396,1.471,0.938,2.998,0.938c1.53,0,2.385-0.545,3.008-0.943c0.16-0.104,0.309-0.189,0.453-0.268
		c0.307-0.162,0.614-0.26,1.135-0.26c0.768,0,1.078,0.197,1.598,0.526c0.619,0.399,1.467,0.942,3.01,0.942
		c1.537,0,2.389-0.543,3.012-0.942c0.517-0.329,0.826-0.526,1.593-0.526c0.178,0,0.319-0.145,0.319-0.32
		c0-0.174-0.143-0.319-0.319-0.319c-0.951,0-1.386,0.274-1.939,0.629c-0.426,0.272-0.896,0.565-1.586,0.726
		c-6.354-8.216-5.832-11.999-7.159-14.277c-1.082-1.854-6.451,3.379-8.613,5.23l5.047-4.647c0,0-1.811-4.137-2.832-4.756
		c-1.02-0.618-2.012,1.237-3.291,2.475c-1.283,1.234-2.211,2.008-2.365,3.244c-0.152,1.235-1.543,2.471-2.779,4.325
		c-1.238,1.854-4.328,5.562-7.881,7.571l-0.936,0.424c-0.188-0.104-0.361-0.211-0.529-0.317c-0.523-0.338-0.977-0.629-1.932-0.629
		c-0.178,0-0.32,0.145-0.32,0.319C1.001,24.808,1.144,24.952,1.321,24.952z"/>
	<path fill="#19B2A7" d="M38.114,27.888c-0.951,0-1.387,0.277-1.939,0.629c-0.615,0.396-1.314,0.843-2.664,0.843
		c-1.352,0-2.078-0.466-2.668-0.845c-0.549-0.35-0.984-0.627-1.939-0.627c-0.95,0-1.385,0.277-1.938,0.629
		c-0.613,0.396-1.312,0.843-2.658,0.843c-1.342,0-2.039-0.444-2.664-0.843c-0.522-0.336-0.977-0.629-1.938-0.629
		c-0.949,0-1.383,0.277-1.934,0.629c-0.617,0.396-1.314,0.843-2.661,0.843c-1.34,0-2.039-0.445-2.664-0.843
		c-0.521-0.336-0.977-0.629-1.934-0.629c-0.953,0-1.408,0.293-1.936,0.629c-0.615,0.396-1.314,0.843-2.662,0.843
		c-1.34,0-2.039-0.445-2.664-0.843c-0.521-0.336-0.975-0.629-1.932-0.629c-0.178,0-0.32,0.146-0.32,0.32
		c0,0.178,0.143,0.32,0.32,0.32c0.77,0,1.096,0.211,1.594,0.531c0.623,0.396,1.475,0.938,3.002,0.938c1.533,0,2.385-0.542,3.01-0.94
		c0.512-0.332,0.822-0.528,1.588-0.528c0.771,0,1.078,0.196,1.596,0.532c0.623,0.396,1.475,0.938,3.002,0.938
		c1.534,0,2.385-0.542,3.006-0.939c0.516-0.332,0.826-0.529,1.588-0.529c0.771,0,1.1,0.211,1.6,0.532
		C21.929,29.458,22.776,30,24.308,30c1.535,0,2.385-0.542,3.008-0.94c0.515-0.332,0.822-0.528,1.588-0.528
		c0.769,0,1.08,0.197,1.599,0.528c0.621,0.396,1.47,0.94,3.011,0.94c1.536,0,2.389-0.546,3.012-0.94
		c0.516-0.332,0.826-0.528,1.592-0.528c0.178,0,0.32-0.144,0.32-0.319C38.435,28.033,38.292,27.888,38.114,27.888z"/>
</g>
</svg>
