<?xml version="1.0" encoding="utf-8"?>
<!-- Generator: Adobe Illustrator 16.0.0, SVG Export Plug-In . SVG Version: 6.00 Build 0)  -->
<!DOCTYPE svg PUBLIC "-//W3C//DTD SVG 1.1//EN" "http://www.w3.org/Graphics/SVG/1.1/DTD/svg11.dtd">
<svg version="1.1" id="Layer_1" xmlns="http://www.w3.org/2000/svg" xmlns:xlink="http://www.w3.org/1999/xlink" x="0px" y="0px"
	 width="40px" height="30px" viewBox="0 0 40 30" enable-background="new 0 0 40 30" xml:space="preserve">
<g>
	<path fill="#19B2A7" d="M21.663,22.645h-0.121l0.209-6.287c-0.169,0-0.331-0.008-0.492-0.021v6.311h-0.226v-6.336
		c-0.135-0.018-0.268-0.035-0.396-0.062v6.398h-0.226v-6.449c-0.137-0.033-0.268-0.07-0.396-0.111v6.561H19.79v-6.633
		c-0.136-0.049-0.27-0.104-0.396-0.162v6.795h-0.226V15.74c-0.137-0.072-0.27-0.145-0.394-0.221v7.127h-0.228v-7.27
		c-0.143-0.096-0.275-0.192-0.396-0.289v7.561h-0.225v-7.75c-0.328-0.289-0.55-0.541-0.664-0.686v2.031c0,0-0.155,0.104,0.206,0
		l0.214,6.402h-0.015c-0.535,0-0.968,0.436-0.968,0.969v0.133v0.129V30h5.933v-6.123v-0.129v-0.133
		C22.632,23.08,22.195,22.645,21.663,22.645z"/>
	<path fill="#19B2A7" d="M25.725,6.043l0.114-0.005C25.684,6,25.525,5.958,25.361,5.911c-0.518-0.145-0.95-0.292-1.332-0.428
		c0.279,1.828-0.478,3.086-0.995,3.705C23.968,8.722,25.764,7.615,25.725,6.043z"/>
	<path fill="#19B2A7" d="M21.266,8.56L21.2,4.792c-0.798-0.244-0.789-1.58-0.788-1.637c0-0.025-0.019-0.696-0.805-0.719
		c-0.214-0.013-0.39,0.054-0.516,0.179c-0.253,0.255-0.244,0.696-0.244,0.696c0.002,0.007,0.112,1.201-1.406,1.608
		c-1.115,0.296-1.65,0.469-1.828,0.531c0.006,0.188,0.068,0.728,0.562,1.303C16.785,7.46,18.161,8.34,21.266,8.56z M20.187,3.086
		c-0.521-0.196-0.524,0.441-0.524,0.441l-0.008,0.003c0.24,0.01,0.431,0.204,0.431,0.445c0,0.246-0.202,0.449-0.45,0.449
		c-0.248,0-0.449-0.203-0.449-0.449c0-0.219,0.158-0.392,0.364-0.433c-0.015-0.575-0.426-0.566-0.426-0.566
		C19.701,2.539,20.187,3.086,20.187,3.086z"/>
	<path fill="#19B2A7" d="M12.694,6.222L12.8,6.178c-0.891,0.193-1.562,0.269-1.827,0.29h-0.059l1.929,2.691
		c0.004,0.003,0.009,0.006,0.014,0.009l2.112-0.156C14.193,8.53,13.311,7.693,12.694,6.222z"/>
	<path fill="#19B2A7" d="M18.624,3.331C18.622,3.3,18.61,2.78,18.932,2.457c0.173-0.17,0.407-0.255,0.684-0.245
		c1.004,0.031,1.022,0.936,1.022,0.945c0,0.008-0.002,0.349,0.09,0.697c-0.061-0.68,0.146-1.924-1.044-2.141V1.689
		c-0.027,0.001-0.049,0.007-0.072,0.012c-0.024-0.005-0.045-0.011-0.072-0.012v0.023c-1.235,0.224-0.967,1.562-1.054,2.216
		C18.647,3.623,18.627,3.351,18.624,3.331z"/>
	<path fill="#19B2A7" d="M25.949,6.067c0.017,1.449-1.336,2.498-2.336,3.072c1.347-0.411,3.557-1.271,4.507-2.682
		C27.738,6.417,26.95,6.313,25.949,6.067z"/>
	<path fill="#19B2A7" d="M26.346,9.167l1.327-1.854C26.824,8.1,25.645,8.664,24.627,9.04L26.346,9.167z"/>
	<polygon fill="#19B2A7" points="28.279,6.467 28.25,6.467 28.271,6.481 	"/>
	<path fill="#19B2A7" d="M26.589,9.009c0.183-0.135,0.361-0.295,0.528-0.487C26.91,8.753,26.727,8.91,26.589,9.009z"/>
	<path fill="#19B2A7" d="M26.367,9.167c0.062-0.033,0.119-0.086,0.18-0.128c-0.117,0.083-0.195,0.124-0.201,0.127L26.367,9.167z"/>
	<path fill="#19B2A7" d="M26.589,9.009c-0.015,0.011-0.028,0.021-0.042,0.03C26.562,9.03,26.572,9.022,26.589,9.009z"/>
	<path fill="#19B2A7" d="M31.133,6.763c0-0.283-0.826-0.295-0.826-0.295c0.028-0.291-0.334-0.093-0.771-0.194
		c-0.438-0.104-0.875,0.194-0.875,0.194h-0.363c-0.004,0.008-0.008,0.017-0.009,0.025l0.057,0.037
		c-0.045,0.069-0.1,0.131-0.147,0.199c-0.144,0.354-0.296,0.66-0.451,0.926c0.108-0.179,0.211-0.351,0.295-0.506h0.565
		c0.418,0.286,1.521,0.231,1.883,0.231c0.359,0,0.334-0.182,0.334-0.182c0.311,0.028,0.311-0.154,0.311-0.154
		C31.339,6.917,31.133,6.763,31.133,6.763z"/>
	<path fill="#19B2A7" d="M16.825,13.897c0,0,0,0.259,0.437,0.129l0.093-0.063c0.015,0.022,1.589,2.27,4.604,2.168l0.004,0.111
		v-2.216c0.438,0.13,0.438-0.129,0.438-0.129l0.129-4.321l-0.016-0.049l-0.054-0.07c0.019-0.014,1.793-1.433,1.33-4.06
		c-0.758-0.279-1.265-0.5-1.674-0.546c-0.066-0.008-0.13-0.015-0.191-0.023l0.15,8.551l-0.226,0.003l-0.151-8.568l0.116-0.003
		c-0.142-0.022-0.271-0.051-0.391-0.092l0.15,8.66l-0.227,0.003L21.27,8.785c-1.931-0.132-3.211-0.524-4.068-0.975l0.051,5.782
		l-0.224,0.001l-0.053-5.906c-0.444-0.262-0.76-0.54-0.977-0.795c-0.579-0.674-0.616-1.301-0.613-1.478
		c-0.422,0.154-0.919,0.327-1.523,0.497c-0.337,0.097-0.654,0.175-0.952,0.241c1.299,3.063,3.769,3.279,3.792,3.281l-0.007,0.11
		L16.825,13.897z"/>
	<path fill="#19B2A7" d="M21.962,16.242v0.047C22.027,16.289,21.962,16.242,21.962,16.242z"/>
	<path fill="#19B2A7" d="M9.688,6.273C9.252,6.375,8.891,6.177,8.916,6.467c0,0-0.824,0.012-0.824,0.295c0,0-0.204,0.154,0,0.282
		c0,0,0,0.183,0.31,0.154c0,0-0.024,0.182,0.335,0.182c0.361,0,1.463,0.055,1.879-0.231h0.569c0.021,0.035,0.044,0.076,0.064,0.113
		c-0.116-0.238-0.229-0.5-0.333-0.795h-0.351C10.564,6.467,10.126,6.168,9.688,6.273z"/>
</g>
</svg>
