<?xml version="1.0" encoding="utf-8"?>
<!-- Generator: Adobe Illustrator 16.0.0, SVG Export Plug-In . SVG Version: 6.00 Build 0)  -->
<!DOCTYPE svg PUBLIC "-//W3C//DTD SVG 1.1//EN" "http://www.w3.org/Graphics/SVG/1.1/DTD/svg11.dtd">
<svg version="1.1" id="Layer_1" xmlns="http://www.w3.org/2000/svg" xmlns:xlink="http://www.w3.org/1999/xlink" x="0px" y="0px"
	 width="40px" height="30px" viewBox="5 2.671 40 30" enable-background="new 5 2.671 40 30" xml:space="preserve">
<g>
	<path fill="#19B2A7" d="M13.146,15.044c-2.435,0-3.254,3.718-3.254,3.718c0.839-1.097,1.774-1.677,2.681-1.961
		c-2.208,1.03-1.375,4.748-1.375,4.748c0.814-3.72,3.935-4.259,5.135-4.327v6.97h1.136v-6.956c1.306,0.112,4.175,0.767,4.951,4.313
		c0,0,0.684-3.053-0.832-4.392c0.724,0.354,1.442,0.922,2.089,1.823c0,0-0.578-3.071-2.497-3.705
		c0.804,0.04,1.687,0.277,2.636,0.851c0,0-1.746-2.597-3.762-2.418c0.755-0.281,1.662-0.413,2.762-0.262
		c0,0-5.203-3.354-5.924,2.053c-0.208-5.451-5.701-2.604-5.701-2.604c1.379-0.059,2.424,0.288,3.223,0.803
		c-2.205-1.036-4.525,1.986-4.525,1.986C11.112,15.046,12.205,14.918,13.146,15.044z M15.067,15.713
		c0.652,0.38,1.139,0.826,1.428,1.135h-0.048C15.954,16.363,15.495,15.99,15.067,15.713z M14.589,16.592
		c0.734,0.065,1.349,0.255,1.744,0.41v0.037C15.676,16.806,15.097,16.662,14.589,16.592z M17.197,16.848h-0.026
		c0.141-0.131,0.32-0.284,0.537-0.445C17.542,16.538,17.372,16.687,17.197,16.848z M16.947,16.848
		c0.081-0.193,0.202-0.449,0.368-0.737c-0.117,0.226-0.232,0.474-0.348,0.737H16.947z M17.469,16.958
		c0.145-0.046,0.312-0.092,0.493-0.136c-0.16,0.046-0.322,0.094-0.493,0.151V16.958z M16.712,16.848H16.68
		c-0.253-0.703-0.526-1.277-0.812-1.734C16.335,15.791,16.591,16.453,16.712,16.848z"/>
	<path fill="#19B2A7" d="M33.139,22.374c-1.29-0.118-2.596-0.278-3.894-0.171c-1.35,0.112-1.968,0.891-3.189,1.277
		c-0.735,0.232-1.591,0.438-2.354,0.55c-2.282,0.328-4.704,0.208-7.01,0.29c-2.218,0.081-4.627,0.216-6.546,1.511
		c-0.356,0.238-1.203,0.955-0.767,1.467c0.269,0.312,1.474,0.07,1.882,0.183c0.168,1.046-1.521,1.385-0.462,2.449
		c1.292,1.296,4.575,0.975,6.158,0.827c1.851-0.176,3.789-0.078,5.616-0.373c1.399-0.227,2.628-0.509,4.072-0.573
		c1.474-0.065,2.498,0.146,3.909,0.552c1.757,0.507,4.305,0.352,6.104,0.078c1.728-0.263,4.144-1.236,4.524-3.122
		C41.97,23.393,35.747,22.611,33.139,22.374z"/>
	<path fill="#19B2A7" d="M24.581,10.25c0.007,0.006,0.011,0.016,0.017,0.029c0.002,0.013,0.009,0.021,0.009,0.021
		c-0.137,0.016-0.24,0.044-0.312,0.084c-0.076,0.037-0.133,0.085-0.172,0.139c-0.037,0.055-0.065,0.116-0.08,0.183
		c-0.014,0.066-0.028,0.139-0.037,0.217c-0.012,0.075-0.029,0.156-0.049,0.239c-0.021,0.082-0.061,0.163-0.111,0.249v0.032
		c0.03,0,0.062-0.009,0.088-0.026c0.028-0.018,0.06-0.035,0.089-0.06c0.026-0.021,0.058-0.041,0.084-0.058
		c0.028-0.018,0.058-0.026,0.091-0.026c0.046,0,0.09,0.005,0.129,0.017c0.041,0.01,0.082,0.023,0.127,0.04
		c0.063,0.021,0.122,0.042,0.168,0.064c0.05,0.022,0.092,0.046,0.124,0.072c0.03,0.028,0.063,0.062,0.084,0.104
		c0.026,0.04,0.044,0.089,0.07,0.149l0.494,0.504c0.008,0.009,0.026,0.031,0.055,0.066c0.029,0.032,0.049,0.055,0.058,0.065
		c0.037,0.055,0.073,0.123,0.115,0.206c0.044,0.083,0.087,0.165,0.133,0.245c0.048,0.082,0.1,0.156,0.148,0.224
		c0.052,0.068,0.102,0.115,0.152,0.144c0.018,0.01,0.047,0.027,0.084,0.056c0.043,0.025,0.062,0.043,0.074,0.049
		c0.037,0.035,0.08,0.078,0.138,0.134c0.056,0.055,0.095,0.106,0.127,0.156l0.029-0.029c-0.006-0.006-0.017-0.032-0.021-0.076
		c-0.006-0.043-0.009-0.071-0.009-0.078l0.003-0.012c0,0,0.002-0.006,0.006-0.014c0,0,0.015,0,0.034-0.002
		c0.018-0.001,0.029-0.003,0.035-0.003c0.011,0,0.022,0.005,0.043,0.019c0.021,0.01,0.034,0.015,0.04,0.015
		c0.016-0.017,0.021-0.028,0.024-0.033c0.005-0.007,0.005-0.026-0.003-0.052c-0.004-0.021-0.006-0.038-0.006-0.045
		c0.062,0,0.123,0.021,0.186,0.061c0.062,0.038,0.111,0.087,0.139,0.145c0.041,0.076,0.098,0.18,0.17,0.304
		c0.072,0.125,0.142,0.25,0.211,0.371c0.073,0.121,0.134,0.23,0.188,0.324c0.056,0.093,0.084,0.146,0.09,0.158
		c0.013,0.034,0.045,0.091,0.084,0.174c0.039,0.08,0.088,0.174,0.146,0.282c0.055,0.111,0.114,0.224,0.173,0.348
		c0.064,0.121,0.121,0.237,0.178,0.351c0.06,0.114,0.112,0.22,0.157,0.315c0.046,0.095,0.082,0.166,0.105,0.217
		c0.008,0.012,0.022,0.043,0.045,0.1c0.023,0.056,0.048,0.116,0.073,0.181c0.025,0.062,0.047,0.121,0.071,0.177
		c0.026,0.054,0.041,0.086,0.046,0.096c0.007,0.021,0.024,0.054,0.051,0.097c0.023,0.044,0.049,0.091,0.078,0.14
		c0.028,0.051,0.054,0.096,0.078,0.142c0.028,0.043,0.049,0.073,0.06,0.095c0.006,0.024,0.024,0.035,0.054,0.035
		c0-0.061-0.008-0.115-0.029-0.158c-0.019-0.047-0.039-0.093-0.056-0.142c-0.037-0.142-0.069-0.282-0.097-0.427
		c-0.028-0.141-0.074-0.279-0.139-0.416c-0.005-0.02-0.021-0.055-0.048-0.105c-0.024-0.051-0.05-0.104-0.075-0.16
		c-0.031-0.058-0.059-0.109-0.082-0.161c-0.03-0.052-0.049-0.084-0.057-0.102v-0.049h0.131v-0.082L28.452,15.2
		c0-0.004,0-0.007-0.006-0.012c0,0,0-0.007,0-0.015c0-0.019,0.006-0.03,0.021-0.035c0.012-0.003,0.026-0.008,0.044-0.011
		c0.014-0.004,0.028-0.007,0.042-0.015c0.012-0.006,0.021-0.021,0.021-0.041v-0.37c0-0.009,0.008-0.02,0.022-0.022
		c0.012-0.007,0.026-0.01,0.041-0.019c0.013-0.012,0.029-0.018,0.043-0.028c0.016-0.006,0.029-0.021,0.034-0.035
		c0.023-0.068,0.044-0.108,0.064-0.12c0.021-0.007,0.041-0.01,0.059-0.001s0.034,0.013,0.049,0.02
		c0.021,0.003,0.031-0.019,0.043-0.058c0.032,0.018,0.053,0.032,0.075,0.039c0.015,0.012,0.034,0.021,0.053,0.027
		c0.017,0.009,0.026,0.01,0.026,0.01c0.014,0.008,0.027,0.015,0.046,0.021c0.021,0.008,0.031,0.012,0.031,0.012
		c0.006,0,0.007-0.004,0.015-0.012c0.006-0.006,0.012-0.013,0.02-0.021c0,0,0-0.009,0.003-0.021c0.003-0.011,0.01-0.022,0.021-0.031
		c0,0,0.009-0.003,0.014-0.003l0.007,0.004c0.033,0.015,0.068,0.033,0.103,0.057c0.035,0.021,0.073,0.03,0.116,0.03v-0.035
		c-0.004-0.007-0.009-0.019-0.015-0.038c-0.005-0.02-0.011-0.031-0.015-0.038h0.009c0.04,0,0.075,0.012,0.113,0.032
		c0.034,0.019,0.069,0.043,0.104,0.064c0.032,0.022,0.067,0.045,0.104,0.066c0.032,0.02,0.072,0.03,0.113,0.03v-0.063h0.025
		c0.044,0.029,0.098,0.059,0.148,0.097c0.06,0.034,0.114,0.063,0.176,0.083c0,0,0.005-0.006,0.008-0.017
		c0.003-0.013,0.007-0.023,0.013-0.029c0.009-0.005,0.017-0.005,0.017-0.005l0.009,0.005c0.017,0.006,0.044,0.023,0.084,0.05
		c0.04,0.024,0.083,0.052,0.125,0.077c0.043,0.027,0.087,0.056,0.13,0.081c0.035,0.026,0.063,0.047,0.083,0.058
		c0.016,0.009,0.053,0.037,0.116,0.079c0.062,0.046,0.127,0.09,0.202,0.142c0.069,0.048,0.136,0.096,0.197,0.138
		c0.06,0.046,0.098,0.072,0.115,0.084c0.007,0.006,0.023,0.015,0.052,0.026c0.025,0.014,0.044,0.021,0.059,0.031
		c0,0,0.002,0.003,0.018,0.003h0.014c0-0.03,0-0.045-0.004-0.052c-0.005-0.008-0.014-0.021-0.027-0.035l-1.765-1.341l-1.348-0.793
		c-0.063-0.037-0.13-0.083-0.194-0.138c-0.065-0.055-0.132-0.11-0.196-0.169c-0.066-0.06-0.126-0.123-0.185-0.181
		c-0.059-0.061-0.11-0.116-0.156-0.168c-0.043-0.035-0.09-0.088-0.142-0.156c-0.05-0.067-0.077-0.131-0.077-0.188
		c0-0.01,0.021-0.042,0.055-0.099c0.037-0.053,0.074-0.11,0.115-0.174c0.046-0.063,0.087-0.119,0.125-0.169
		c0.043-0.052,0.066-0.082,0.076-0.089c0.008-0.005,0.024-0.011,0.056-0.014c0.034-0.004,0.048-0.007,0.053-0.007
		c0.042-0.009,0.086-0.033,0.124-0.069c0.041-0.037,0.078-0.06,0.115-0.065h0.029h0.046h0.05h0.029c0.021,0,0.041-0.009,0.062-0.021
		c0.015-0.014,0.033-0.028,0.053-0.049c0.017-0.018,0.032-0.035,0.046-0.051c0.017-0.016,0.032-0.026,0.053-0.035
		c0,0,0.008-0.006,0.023-0.007c0.015-0.005,0.032-0.008,0.054-0.011c0.018-0.003,0.032-0.006,0.051-0.007
		c0.019-0.003,0.031-0.003,0.031-0.003c0.035-0.01,0.065-0.021,0.089-0.033c0.026-0.013,0.049-0.024,0.069-0.035
		c0.021-0.009,0.047-0.018,0.07-0.029c0.028-0.011,0.063-0.022,0.106-0.032c0.031-0.008,0.056-0.021,0.079-0.04
		c0.024-0.018,0.042-0.04,0.062-0.058c0.02-0.021,0.041-0.04,0.064-0.056c0.025-0.015,0.052-0.027,0.084-0.034
		c0.006,0,0.027-0.005,0.065-0.012c0.037-0.006,0.079-0.011,0.121-0.017c0.038-0.004,0.081-0.007,0.118-0.015
		c0.038-0.004,0.061-0.007,0.068-0.007c0,0,0.017-0.005,0.049-0.016c0.028-0.01,0.065-0.021,0.102-0.036
		c0.04-0.018,0.078-0.028,0.121-0.048c0.04-0.013,0.072-0.024,0.096-0.032c0.016-0.007,0.028-0.013,0.042-0.021
		c0.018-0.008,0.028-0.018,0.038-0.037c-0.01-0.015-0.021-0.024-0.038-0.03c-0.014-0.006-0.026-0.013-0.042-0.02
		c0.025-0.007,0.046-0.018,0.065-0.028c0.021-0.006,0.043-0.015,0.066-0.021c0.022-0.007,0.059-0.016,0.112-0.026
		c0.056-0.014,0.113-0.026,0.175-0.04c0.063-0.013,0.121-0.026,0.181-0.038c0.053-0.011,0.091-0.02,0.11-0.029
		c0.007,0,0.016,0,0.024-0.009c0.011-0.006,0.021-0.012,0.031-0.02c0,0,0-0.003,0-0.011c0-0.027-0.01-0.042-0.031-0.047
		c-0.018-0.001-0.044-0.004-0.064-0.004c-0.028,0-0.053,0-0.07-0.002c-0.025-0.003-0.039-0.016-0.045-0.038l0.786-0.367l0.026-0.029
		c-0.021-0.017-0.047-0.026-0.075-0.034c-0.029-0.003-0.056-0.011-0.085-0.018l0.66-0.317V9.667h-0.208
		c-0.003,0-0.007-0.001-0.017-0.007c-0.01-0.005-0.014-0.008-0.014-0.019V9.627v-0.01c0.012-0.008,0.03-0.02,0.062-0.037
		c0.033-0.02,0.065-0.038,0.098-0.058c0.032-0.021,0.064-0.04,0.096-0.056c0.031-0.012,0.051-0.023,0.066-0.033
		c0.021-0.012,0.058-0.026,0.112-0.042c0.049-0.015,0.102-0.03,0.15-0.049c0.052-0.015,0.096-0.035,0.137-0.058
		c0.037-0.022,0.057-0.046,0.057-0.072h-0.301c0.015-0.043,0.054-0.083,0.119-0.122c0.065-0.04,0.133-0.081,0.206-0.121
		c0.072-0.037,0.136-0.075,0.198-0.115c0.058-0.035,0.087-0.07,0.087-0.099h-0.081c-0.017,0-0.034,0-0.049-0.003
		c-0.02-0.002-0.029-0.005-0.037-0.005c-0.004,0-0.011,0-0.017-0.009c-0.004-0.006-0.008-0.013-0.008-0.019l0.765-0.523
		c0.021-0.012,0.032-0.028,0.032-0.052h-0.188c0.019-0.025,0.054-0.058,0.104-0.087c0.052-0.029,0.105-0.062,0.155-0.095
		c0.05-0.035,0.095-0.07,0.136-0.112c0.037-0.035,0.056-0.081,0.056-0.128h-0.028l-0.267,0.13h-0.052l0.318-0.344
		c0.008-0.004,0.014-0.018,0.023-0.043c0.01-0.026,0.019-0.047,0.025-0.064V7.394V7.377C33.451,7.478,33.323,7.58,33.2,7.684
		c-0.117,0.104-0.255,0.196-0.406,0.28c-0.037,0.02-0.086,0.043-0.143,0.072c-0.053,0.028-0.113,0.06-0.18,0.095
		c-0.061,0.032-0.125,0.067-0.195,0.102c-0.064,0.032-0.127,0.063-0.185,0.092c-0.057,0.032-0.104,0.054-0.142,0.073
		c-0.041,0.02-0.065,0.031-0.077,0.032l-1.785,0.74l-2.66,0.844c-0.095,0.032-0.177,0.063-0.255,0.1
		c-0.077,0.033-0.154,0.074-0.223,0.115c-0.076,0.042-0.145,0.08-0.214,0.121c-0.074,0.041-0.147,0.077-0.23,0.112l-0.017,0.006
		c-0.006,0-0.013-0.006-0.013-0.006L26.318,10.3c0.017-0.049,0.021-0.096,0.008-0.145c-0.012-0.046-0.04-0.089-0.083-0.124
		c0,0,0.011-0.012,0.021-0.031c0.013-0.021,0.024-0.043,0.033-0.064c0.012-0.02,0.021-0.045,0.029-0.062
		c0.012-0.021,0.02-0.033,0.022-0.042V9.807c0-0.035-0.015-0.054-0.04-0.059c-0.027-0.006-0.039-0.018-0.039-0.038V9.697
		c0-0.003,0-0.019,0.007-0.042c0.005-0.022,0.009-0.049,0.015-0.077c0.006-0.025,0.015-0.053,0.021-0.072
		c0.003-0.022,0.006-0.038,0.006-0.046c0.003-0.029,0.005-0.067,0.008-0.112c0.001-0.047,0.001-0.09,0.005-0.134
		s0.004-0.101,0.008-0.162H26.14c-0.002-0.035-0.004-0.058-0.004-0.069l0.029-0.416V8.507c0-0.026-0.001-0.051-0.007-0.069
		c-0.006-0.021-0.025-0.034-0.058-0.034c-0.04,0-0.072,0.011-0.098,0.026c-0.026,0.015-0.061,0.026-0.102,0.026
		c0-0.081,0.003-0.16,0.01-0.234c0.011-0.073,0.016-0.148,0.016-0.231c0,0,0-0.012,0.001-0.033c0.003-0.021,0.003-0.04,0-0.068
		c-0.001-0.021-0.003-0.044-0.011-0.062c-0.007-0.017-0.019-0.028-0.03-0.028c-0.026,0-0.054,0.006-0.072,0.012
		c-0.023,0.008-0.049,0.011-0.077,0.011V7.799l0.023-0.526V7.258c0,0,0-0.021,0-0.058s-0.004-0.077-0.012-0.116
		c-0.007-0.043-0.021-0.08-0.033-0.115c-0.014-0.034-0.034-0.055-0.055-0.065c-0.021,0-0.034,0-0.047,0.011
		c-0.017,0.012-0.028,0.022-0.045,0.037c-0.016,0.013-0.032,0.024-0.05,0.033c-0.015,0.012-0.035,0.019-0.055,0.019V6.145
		c0-0.006-0.007-0.017-0.023-0.026c-0.014-0.013-0.032-0.024-0.049-0.03c-0.007-0.004-0.024-0.007-0.061-0.015
		c-0.03-0.007-0.055-0.012-0.064-0.012V5.948c0-0.083,0.006-0.161,0.012-0.242c0.009-0.08,0.012-0.162,0.012-0.245V5.422
		c0,0,0-0.012-0.003-0.032c0-0.02-0.002-0.038-0.008-0.061c-0.001-0.023-0.003-0.043-0.006-0.063
		c-0.001-0.021-0.007-0.037-0.007-0.046c-0.009-0.015-0.017-0.021-0.025-0.025c-0.012,0-0.021-0.001-0.034-0.001L25.19,5.2
		c-0.007,0-0.025,0.006-0.053,0.02c-0.029,0.01-0.047,0.019-0.057,0.026h-0.013H25.06c-0.006-0.008-0.015-0.026-0.021-0.066
		c-0.008-0.032-0.011-0.054-0.011-0.061c-0.003-0.023-0.008-0.063-0.014-0.116c-0.004-0.055-0.01-0.111-0.014-0.172
		c-0.005-0.062-0.011-0.12-0.011-0.177c-0.006-0.055-0.011-0.094-0.014-0.113c0.014-0.059-0.007-0.086-0.05-0.086
		c-0.028,0-0.055,0.008-0.081,0.027c-0.023,0.019-0.049,0.041-0.073,0.069c-0.024,0.026-0.049,0.055-0.066,0.082
		c-0.021,0.026-0.031,0.046-0.043,0.058h-0.031V4.219h-0.026c0,0-0.014,0.012-0.038,0.032c-0.021,0.018-0.045,0.044-0.072,0.072
		c-0.025,0.029-0.057,0.06-0.083,0.087c-0.028,0.028-0.054,0.052-0.071,0.072c-0.057,0.068-0.113,0.149-0.164,0.237
		c-0.053,0.092-0.098,0.187-0.143,0.285c-0.041,0.099-0.078,0.198-0.105,0.298C23.9,5.405,23.88,5.5,23.871,5.59l-0.183,1.296
		c0,0-0.005,0.028-0.005,0.071c-0.003,0.047-0.007,0.094-0.007,0.142v0.07c0,0.546,0.079,1.083,0.23,1.607
		C24.062,9.305,24.286,9.792,24.581,10.25z M29.846,14.514c0.014,0,0.018,0.012,0.018,0.032c0,0.011-0.004,0.021-0.018,0.021
		c-0.012,0-0.019-0.011-0.019-0.021C29.827,14.526,29.834,14.514,29.846,14.514z"/>
</g>
</svg>
