<?xml version="1.0" encoding="utf-8"?>
<!-- Generator: Adobe Illustrator 16.0.0, SVG Export Plug-In . SVG Version: 6.00 Build 0)  -->
<!DOCTYPE svg PUBLIC "-//W3C//DTD SVG 1.1//EN" "http://www.w3.org/Graphics/SVG/1.1/DTD/svg11.dtd">
<svg version="1.1" id="Layer_1" xmlns="http://www.w3.org/2000/svg" xmlns:xlink="http://www.w3.org/1999/xlink" x="0px" y="0px"
	 width="40px" height="30px" viewBox="0 0 40 30" enable-background="new 0 0 40 30" xml:space="preserve">
<path fill="#19B2A7" d="M23.785,5.083H12.727c-1.19,0-3.65,0.89-3.65,3.646v16.45c0,0.992,0.807,1.801,1.801,1.801h3.678
	l-1.186,2.77L13.957,30l1.296-3.021h0.543h5.22h0.752L23.062,30l0.588-0.251l-1.186-2.77h3.169c0.994,0,1.8-0.809,1.8-1.801V8.73
	C27.432,6.31,26.205,5.083,23.785,5.083z M16.227,6.981h4.823c0.401,0,0.724,0.323,0.724,0.725c0,0.397-0.321,0.72-0.724,0.72
	h-4.823c-0.399,0-0.721-0.322-0.721-0.72C15.506,7.304,15.827,6.981,16.227,6.981z M13.647,24.06c-0.976,0-1.772-0.791-1.772-1.77
	c0-0.977,0.797-1.77,1.772-1.77c0.98,0,1.772,0.793,1.772,1.77C15.42,23.269,14.628,24.06,13.647,24.06z M22.625,24.06
	c-0.98,0-1.771-0.791-1.771-1.77c0-0.977,0.791-1.77,1.771-1.77s1.771,0.793,1.771,1.77C24.396,23.269,23.605,24.06,22.625,24.06z
	 M25.072,16.031h-13.51v-5.265h13.511L25.072,16.031L25.072,16.031z"/>
</svg>
