<?xml version="1.0" encoding="utf-8"?>
<!-- Generator: Adobe Illustrator 16.0.0, SVG Export Plug-In . SVG Version: 6.00 Build 0)  -->
<!DOCTYPE svg PUBLIC "-//W3C//DTD SVG 1.1//EN" "http://www.w3.org/Graphics/SVG/1.1/DTD/svg11.dtd">
<svg version="1.1" id="Layer_1" xmlns="http://www.w3.org/2000/svg" xmlns:xlink="http://www.w3.org/1999/xlink" x="0px" y="0px"
	 width="40px" height="30px" viewBox="0 0 40 30" enable-background="new 0 0 40 30" xml:space="preserve">
<g>
	<path fill="#19B2A7" d="M1.321,21.932c0.182,0,0.336,0.014,0.479,0.036c0.432,0.201,1.02,0.486,1.748,0.871
		c0.004,0.002,0.01,0.003,0.014,0.005c0.559,0.295,1.291,0.561,2.355,0.561c1.531,0,2.385-0.545,3.01-0.945
		c0.512-0.327,0.822-0.525,1.588-0.525c0.768,0,1.078,0.198,1.6,0.531c0.619,0.396,1.471,0.939,2.998,0.939
		c1.531,0,2.383-0.547,3.006-0.945c0.516-0.327,0.825-0.525,1.588-0.525c0.771,0,1.101,0.209,1.604,0.531
		c0.619,0.398,1.471,0.939,2.998,0.939c1.53,0,2.385-0.547,3.008-0.945c0.514-0.327,0.826-0.525,1.588-0.525
		c0.768,0,1.078,0.198,1.598,0.525c0.34,0.219,0.752,0.479,1.307,0.673c0.099,0.035,0.193,0.071,0.303,0.095
		c0.396,0.106,0.853,0.178,1.4,0.178c1.537,0,2.389-0.545,3.012-0.944c0.517-0.327,0.826-0.526,1.593-0.526
		c0.178,0,0.319-0.143,0.319-0.319c0-0.573-0.143-0.638-0.319-0.638c-7.648,0-12.212-0.983-13.949-3.006
		c-1.062-1.23-0.994-2.763-0.795-4.099c0.299-1.976,2.06-2.716,3.474-3.313c0.375-0.156,0.729-0.305,1.012-0.461
		c0.358-0.202,0.447-0.454,0.461-0.631c0.027-0.438-0.392-0.76-0.428-0.785c-1.931-1.598-3.875-2.294-5.775-2.06
		c-3.84,0.46-6.902,4.563-9.363,7.859c-0.711,0.955-1.387,1.859-2.018,2.598c-3.809,4.44-9.316,3.868-9.375,3.862
		c-0.166-0.018-0.334,0.105-0.354,0.283l-0.005,0.387C1.001,21.789,1.144,21.932,1.321,21.932z"/>
	<path fill="#19B2A7" d="M38.114,24.869c-0.951,0-1.387,0.277-1.939,0.63c-0.615,0.396-1.314,0.842-2.664,0.842
		c-1.352,0-2.078-0.466-2.668-0.847c-0.549-0.348-0.984-0.625-1.939-0.625c-0.95,0-1.385,0.277-1.938,0.63
		c-0.613,0.396-1.312,0.842-2.658,0.842c-1.342,0-2.039-0.444-2.664-0.842c-0.522-0.338-0.977-0.63-1.938-0.63
		c-0.949,0-1.383,0.277-1.934,0.63c-0.617,0.396-1.314,0.842-2.661,0.842c-1.34,0-2.039-0.444-2.664-0.842
		c-0.521-0.338-0.977-0.63-1.934-0.63c-0.953,0-1.408,0.292-1.936,0.63c-0.615,0.396-1.314,0.842-2.662,0.842
		c-1.34,0-2.039-0.444-2.664-0.842c-0.521-0.338-0.975-0.63-1.932-0.63c-0.178,0-0.32,0.145-0.32,0.32
		c0,0.177,0.143,0.318,0.32,0.318c0.77,0,1.096,0.211,1.594,0.534c0.623,0.396,1.475,0.937,3.002,0.937
		c1.533,0,2.385-0.543,3.01-0.94c0.512-0.33,0.822-0.529,1.588-0.529c0.771,0,1.078,0.199,1.596,0.534
		c0.623,0.395,1.475,0.938,3.002,0.938c1.534,0,2.385-0.543,3.006-0.941c0.516-0.33,0.826-0.529,1.588-0.529
		c0.771,0,1.1,0.211,1.6,0.534c0.623,0.396,1.471,0.937,3.002,0.937c1.535,0,2.385-0.543,3.008-0.94
		c0.515-0.33,0.822-0.528,1.588-0.528c0.769,0,1.08,0.198,1.599,0.528c0.621,0.396,1.47,0.94,3.011,0.94
		c1.536,0,2.389-0.545,3.012-0.94c0.516-0.33,0.826-0.528,1.592-0.528c0.178,0,0.32-0.144,0.32-0.32
		C38.435,25.014,38.292,24.869,38.114,24.869z"/>
</g>
</svg>
