<?xml version="1.0" encoding="utf-8"?>
<!-- Generator: Adobe Illustrator 16.0.0, SVG Export Plug-In . SVG Version: 6.00 Build 0)  -->
<!DOCTYPE svg PUBLIC "-//W3C//DTD SVG 1.1//EN" "http://www.w3.org/Graphics/SVG/1.1/DTD/svg11.dtd">
<svg version="1.1" id="Layer_1" xmlns="http://www.w3.org/2000/svg" xmlns:xlink="http://www.w3.org/1999/xlink" x="0px" y="0px"
	 width="223.177px" height="205.333px" viewBox="0 0 223.177 205.333" enable-background="new 0 0 223.177 205.333"
	 xml:space="preserve">
<g>
	<g>
		<g>
			<path fill="#FFFFFF" d="M29.471,141.93H13.037v5.228h11.722v8.276H13.037v6.608H30.16v8.904H3.153v-37.924h26.317V141.93z"/>
			<path fill="#FFFFFF" d="M46.192,162.042H61.88v8.904H36.31v-37.924h9.883V162.042z"/>
			<path fill="#FFFFFF" d="M118.883,132.333v38.613H109v-15.916l-7.873,9.193h-3.16l-7.814-9.137v15.859H80.27v-38.613h3.161
				l16.146,19.709l16.146-19.709H118.883z"/>
			<path fill="#FFFFFF" d="M136.353,170.947h-9.882v-37.924h9.882V170.947z"/>
			<path fill="#FFFFFF" d="M169.394,139.977l-6.608,5.056c-0.92-1.379-1.857-2.395-2.816-3.045
				c-0.958-0.652-2.106-0.977-3.447-0.977c-2.26,0-3.39,0.805-3.39,2.412c0,0.69,0.239,1.255,0.717,1.695
				c0.48,0.439,1.332,0.91,2.559,1.407l4.366,1.84c3.294,1.378,5.737,2.958,7.327,4.739c1.589,1.783,2.384,4.014,2.384,6.695
				c0,3.64-1.312,6.521-3.935,8.646c-2.625,2.128-5.949,3.189-9.972,3.189c-3.408,0-6.434-0.767-9.079-2.298
				c-2.642-1.532-4.653-3.601-6.032-6.206l6.666-5.057c2.413,3.256,5.228,4.885,8.445,4.885c2.606,0,3.908-0.918,3.908-2.759
				c0-0.843-0.268-1.474-0.805-1.896c-0.536-0.422-1.551-0.958-3.044-1.609l-3.908-1.723c-6.396-2.797-9.596-6.608-9.596-11.436
				c0-3.371,1.235-6.081,3.705-8.131c2.472-2.049,5.661-3.074,9.568-3.074C162.498,132.333,166.826,134.882,169.394,139.977z"/>
			<path fill="#FFFFFF" d="M205.536,141.93h-11.378v29.017h-9.883V141.93h-11.376v-8.907h32.637V141.93z"/>
			<path fill="#FFFFFF" d="M219.789,170.947h-9.884v-37.924h9.884V170.947z"/>
		</g>
	</g>
	<g>
		<path fill="#FFFFFF" d="M56.694,201.971h-2.746V188.55h2.746V201.971z"/>
		<path fill="#FFFFFF" d="M72.361,189.74c0.901,0.792,1.352,1.84,1.352,3.143c0,1.287-0.45,2.334-1.352,3.141
			c-0.901,0.806-2.064,1.21-3.488,1.21h-2.298v4.738h-2.744V188.55h5.042C70.297,188.55,71.46,188.947,72.361,189.74z
			 M66.575,190.97v3.863h2.298c0.638,0,1.137-0.18,1.496-0.539c0.358-0.358,0.538-0.83,0.538-1.412c0-0.57-0.183-1.031-0.549-1.383
			c-0.367-0.354-0.862-0.529-1.485-0.529H66.575z"/>
		<path fill="#FFFFFF" d="M86.258,200.222h-5.49l-0.752,1.749h-2.948l5.998-13.666h0.915l5.979,13.666h-2.948L86.258,200.222z
			 M83.513,193.451l-1.77,4.514h3.539L83.513,193.451z"/>
		<path fill="#FFFFFF" d="M107.283,188.55v13.666h-0.915l-7.769-8.299v8.054h-2.745v-13.666h0.896l7.787,8.236v-7.991H107.283z"/>
		<path fill="#FFFFFF" d="M123.447,191.031h-6.284v2.725h4.617v2.338h-4.617v3.396h6.528v2.481h-9.272V188.55h9.028V191.031z"/>
		<path fill="#FFFFFF" d="M143.271,188.305v13.666h-2.744v-7.178l-3.375,4.249h-0.896l-3.376-4.249v7.178h-2.744v-13.666h0.895
			l5.673,7.28l5.674-7.28H143.271z"/>
		<path fill="#FFFFFF" d="M158.339,200.222h-5.49l-0.754,1.749h-2.947l5.998-13.666h0.916l5.978,13.666h-2.949L158.339,200.222z
			 M155.594,193.451l-1.77,4.514h3.537L155.594,193.451z"/>
	</g>
	<path fill="#FFFFFF" d="M193.475,86.707c-13.741-3.83-22.455-11.724-25.201-22.828l-0.024-0.098
		c-5.698-20.592,3.859-33.939,15.863-38.027c3.454-1.18,5.338-4.027,4.803-7.257c-1.107-6.681-11.927-12.543-23.152-12.543
		c-5.55,0-10.916,1.341-15.948,3.986c-9.404,4.944-18.327,14.304-26.741,25.281c-3.087-4.854-5.983-9.028-8.167-11.698
		c-0.487-0.594-0.986-1.219-1.508-1.871c-6.15-7.648-15.507-19.327-29.841-18.729C69.253,2.336,59.866,13.998,53.722,21.648
		c-0.524,0.652-1.026,1.281-1.512,1.874c-8.35,10.204-23.13,29.177-28.353,41.569c-3.009,7.143-4.266,18.878,2.083,28.441
		c3.954,5.955,12.318,13.051,29.73,13.051h50.407c0.539,0,1.068-0.006,1.592-0.02h84.911l0.278-0.011
		c4.806-0.358,8.201-3.513,8.652-8.038C201.965,93.94,199.083,88.271,193.475,86.707z M32.673,89.064
		c-4.283-6.457-3.776-15.113-1.366-20.834c5.011-11.889,20.661-31.646,27.158-39.588c0.497-0.613,1.02-1.262,1.559-1.928
		c5.483-6.826,13.023-16.23,23.33-15.709l0.204,0.01l0.199-0.01c0.286-0.014,0.566-0.021,0.845-0.021
		c9.856,0,17.161,9.094,22.491,15.732c0.539,0.67,1.058,1.314,1.555,1.926c2.38,2.908,5.754,7.879,9.272,13.576
		c-5.49,7.715-10.75,15.895-15.771,23.705c-3.328,5.179-6.475,10.071-9.418,14.391C84.096,92.98,71.577,97.164,63.165,98.5h-7.494
		C44.728,98.5,36.775,95.238,32.673,89.064z M106.078,98.5H84.277c5.217-3.215,10.356-7.692,14.636-13.971
		c3.002-4.401,6.174-9.336,9.532-14.56c4.257-6.624,8.858-13.78,13.686-20.7c3.847,6.668,7.468,13.576,9.732,18.961
		c2.258,5.356,2.596,13.676-1.729,20.193C125.757,95.02,117.436,98.5,106.078,98.5z M192.426,99.08h-61.231
		c2.48-1.99,4.321-4.15,5.673-6.186c6.393-9.627,5.314-20.992,2.448-27.801c-2.774-6.586-7.348-15.138-12.019-22.996
		c8.341-11.171,17.193-20.903,26-25.532c3.948-2.075,8.143-3.128,12.466-3.128c7.889,0,13.528,3.468,15.253,5.471
		c-7.673,2.807-13.994,8.371-17.853,15.738c-4.591,8.77-5.329,19.515-2.142,31.079c3.396,13.653,14.206,23.663,30.441,28.188
		c1.711,0.477,2.742,2.418,2.601,3.86C194.018,98.238,193.948,98.931,192.426,99.08z"/>
</g>
<g>
</g>
<g>
</g>
<g>
</g>
<g>
</g>
<g>
</g>
<g>
</g>
<g>
</g>
<g>
</g>
<g>
</g>
<g>
</g>
<g>
</g>
<g>
</g>
<g>
</g>
<g>
</g>
<g>
</g>
</svg>
