<?xml version="1.0" encoding="utf-8"?>
<!-- Generator: Adobe Illustrator 16.0.0, SVG Export Plug-In . SVG Version: 6.00 Build 0)  -->
<!DOCTYPE svg PUBLIC "-//W3C//DTD SVG 1.1//EN" "http://www.w3.org/Graphics/SVG/1.1/DTD/svg11.dtd">
<svg version="1.1" id="Layer_1" xmlns="http://www.w3.org/2000/svg" xmlns:xlink="http://www.w3.org/1999/xlink" x="0px" y="0px"
	 width="37.447px" height="37.364px" viewBox="0 0 37.447 37.364" enable-background="new 0 0 37.447 37.364" xml:space="preserve">
<path fill="#FFFFFF" d="M15.581,22.166c-0.479-0.156-1.011-0.248-1.579-0.254c-2.436-0.025-4.618,1.488-4.618,3.301
	c0,1.855,1.759,3.395,4.196,3.395c3.424,0,4.618-1.445,4.618-3.297c0-0.227-0.026-0.443-0.078-0.656
	C17.854,23.605,16.904,23.086,15.581,22.166 M16.67,13.944c-0.284-2.146-1.837-3.871-3.474-3.92
	c-1.635-0.046-2.732,1.594-2.448,3.742c0.28,2.147,1.836,3.929,3.472,3.978C15.854,17.793,16.95,16.092,16.67,13.944 M31.386,14.223
	h-4.109v4.107h-1.027v-4.107h-4.106v-1.027h4.106V9.088h1.027v4.107h4.109V14.223z M20.338,9.088l-1.42,1.027h-2.014
	c1.335,0.512,2.048,2.088,2.048,3.684c0,1.343-0.744,2.515-1.793,3.334c-1.026,0.802-1.219,1.136-1.219,1.818
	c0,0.578,1.098,1.568,1.672,1.975c1.676,1.184,2.219,2.287,2.219,4.123c0,2.295-2.219,4.574-6.239,4.574
	c-3.524,0-6.501-1.436-6.501-3.727c0-2.328,2.715-4.574,6.24-4.574c0.385,0,0.736-0.01,1.1-0.01
	c-0.482-0.471-0.862-1.047-0.862-1.756c0-0.422,0.133-0.828,0.322-1.188c-0.192,0.016-0.388,0.012-0.589,0.012
	c-2.896,0-4.836-2.069-4.836-4.621c0-2.497,2.679-4.672,5.523-4.672H20.338z M36.652,18.682c0-10.072-8.026-18.238-17.929-18.238
	c-9.901,0-17.929,8.166-17.929,18.238c0,10.072,8.027,18.238,17.929,18.238C28.626,36.92,36.652,28.754,36.652,18.682"/>
<g>
</g>
<g>
</g>
<g>
</g>
<g>
</g>
<g>
</g>
<g>
</g>
</svg>
