<?xml version="1.0" encoding="utf-8"?>
<!-- Generator: Adobe Illustrator 16.0.0, SVG Export Plug-In . SVG Version: 6.00 Build 0)  -->
<!DOCTYPE svg PUBLIC "-//W3C//DTD SVG 1.1//EN" "http://www.w3.org/Graphics/SVG/1.1/DTD/svg11.dtd">
<svg version="1.1" id="Layer_1" xmlns="http://www.w3.org/2000/svg" xmlns:xlink="http://www.w3.org/1999/xlink" x="0px" y="0px"
	 width="246.75px" height="57.5px" viewBox="0 0 246.75 57.5" enable-background="new 0 0 246.75 57.5" xml:space="preserve">
<g>
	<g>
		<g>
			<g>
				<path fill="#FFFFFF" d="M93.57,10.738h18.203v4.976h-12.54v8.737h11.043v4.854H99.233v3.964h13.106v4.976H93.57V10.738z"/>
				<path fill="#FFFFFF" d="M117.595,10.738h5.663V33.27h12.459v4.976h-18.122V10.738z"/>
				<path fill="#FFFFFF" d="M148.374,10.455h0.444l13.552,14.886l13.349-14.886h0.485v27.79h-5.461V27.93
					c0-1.86,0.202-4.813,0.202-4.813s-1.658,2.427-2.953,3.884l-5.461,6.107h-0.525L156.545,27
					c-1.295-1.457-2.953-3.884-2.953-3.884s0.203,2.953,0.203,4.813v10.315h-5.421V10.455z"/>
				<path fill="#FFFFFF" d="M182.064,10.738h5.664v27.507h-5.664V10.738z"/>
				<path fill="#FFFFFF" d="M191.164,32.824l4.611-2.67c1.215,1.982,2.792,3.439,5.583,3.439c2.347,0,3.843-1.174,3.843-2.791
					c0-1.942-1.537-2.63-4.126-3.763l-1.416-0.606c-4.085-1.74-6.796-3.924-6.796-8.535c0-4.248,3.236-7.483,8.293-7.483
					c3.6,0,6.189,1.254,8.049,4.53l-4.408,2.832c-0.971-1.739-2.023-2.427-3.641-2.427c-1.658,0-2.711,1.052-2.711,2.427
					c0,1.699,1.053,2.387,3.479,3.438l1.415,0.606c4.814,2.063,7.524,4.167,7.524,8.899c0,5.098-4.005,7.889-9.385,7.889
					C196.221,38.609,192.823,36.102,191.164,32.824z"/>
				<path fill="#FFFFFF" d="M220.732,15.714h-7.848v-4.976h21.357v4.976h-7.848v22.531h-5.662V15.714z"/>
				<path fill="#FFFFFF" d="M238.527,10.738h5.663v27.507h-5.663V10.738z"/>
			</g>
			<g>
				<path fill="#FFFFFF" d="M118.501,42.763h0.989v10.345h-0.989v-3.408h-5.644v3.408h-0.989V42.763h0.989v6.055h5.644V42.763z"/>
				<path fill="#FFFFFF" d="M120.963,50.612c0-1.506,1.171-2.632,2.662-2.632c1.476,0,2.646,1.126,2.646,2.632
					c0,1.491-1.171,2.616-2.646,2.616C122.134,53.229,120.963,52.104,120.963,50.612z M125.313,50.612
					c0-1.05-0.685-1.841-1.688-1.841s-1.688,0.791-1.688,1.841c0,1.034,0.685,1.825,1.688,1.825S125.313,51.646,125.313,50.612z"/>
				<path fill="#FFFFFF" d="M126.985,52.104l0.669-0.472c0.305,0.502,0.807,0.806,1.477,0.806c0.639,0,1.004-0.258,1.004-0.669
					c0-0.44-0.35-0.624-1.217-0.867c-0.989-0.273-1.582-0.653-1.582-1.536c0-0.822,0.654-1.385,1.643-1.385
					c0.791,0,1.324,0.289,1.719,0.807l-0.623,0.518c-0.244-0.32-0.563-0.533-1.08-0.533c-0.502,0-0.791,0.244-0.791,0.562
					c0,0.441,0.318,0.563,1.095,0.762c1.065,0.273,1.734,0.715,1.734,1.627c0,0.943-0.715,1.506-1.901,1.506
					C128.172,53.229,127.441,52.803,126.985,52.104z"/>
				<path fill="#FFFFFF" d="M131.73,48.894v-0.791h0.654v-3.118h0.928v3.118h1.248v0.791h-1.248v2.86
					c0,0.456,0.168,0.669,0.533,0.669c0.228,0,0.41-0.106,0.547-0.213l0.396,0.654c-0.228,0.213-0.593,0.364-1.05,0.364
					c-0.821,0-1.354-0.44-1.354-1.43v-2.905H131.73z"/>
				<path fill="#FFFFFF" d="M138.195,52.438c0.775,0,1.232-0.273,1.566-0.654l0.578,0.563c-0.456,0.548-1.141,0.882-2.129,0.882
					c-1.629,0-2.738-1.125-2.738-2.616c0-1.506,1.171-2.632,2.631-2.632c1.598,0,2.571,1.248,2.541,2.967h-4.199
					C136.582,51.875,137.222,52.438,138.195,52.438z M139.671,50.172c-0.122-0.791-0.624-1.4-1.567-1.4
					c-0.867,0-1.475,0.548-1.627,1.4H139.671z"/>
				<path fill="#FFFFFF" d="M141.92,42.307h0.943v10.801h-0.943V42.307z"/>
				<path fill="#FFFFFF" d="M144.02,52.104l0.669-0.472c0.304,0.502,0.807,0.806,1.476,0.806c0.639,0,1.004-0.258,1.004-0.669
					c0-0.44-0.35-0.624-1.217-0.867c-0.988-0.273-1.582-0.653-1.582-1.536c0-0.822,0.654-1.385,1.643-1.385
					c0.791,0,1.324,0.289,1.72,0.807l-0.624,0.518c-0.243-0.32-0.562-0.533-1.08-0.533c-0.502,0-0.791,0.244-0.791,0.562
					c0,0.441,0.319,0.563,1.096,0.762c1.064,0.273,1.734,0.715,1.734,1.627c0,0.943-0.715,1.506-1.902,1.506
					C145.206,53.229,144.476,52.803,144.02,52.104z"/>
				<path fill="#FFFFFF" d="M151.882,52.484c0-0.412,0.335-0.716,0.715-0.716c0.365,0,0.716,0.304,0.716,0.716
					c0,0.41-0.351,0.715-0.716,0.715C152.217,53.199,151.882,52.895,151.882,52.484z"/>
				<path fill="#FFFFFF" d="M164.355,53.107h-1.202l-2.054-2.646c-0.273,0.045-0.548,0.061-0.852,0.061h-1.264v2.586h-0.988V42.763
					h2.252c2.814,0,4.274,1.658,4.274,3.895c0,1.658-0.821,3.013-2.419,3.575L164.355,53.107z M160.187,49.654
					c2.358,0,3.302-1.263,3.302-2.997s-0.959-3.013-3.302-3.013h-1.202v6.01H160.187z"/>
				<path fill="#FFFFFF" d="M165.752,45.638c0-0.364,0.305-0.639,0.639-0.639c0.336,0,0.64,0.274,0.64,0.639
					c0,0.365-0.304,0.64-0.64,0.64C166.057,46.277,165.752,46.003,165.752,45.638z M165.92,48.103h0.943v5.005h-0.943V48.103z"/>
				<path fill="#FFFFFF" d="M168.125,50.612c0-1.506,1.172-2.632,2.662-2.632c1.476,0,2.646,1.126,2.646,2.632
					c0,1.491-1.171,2.616-2.646,2.616C169.297,53.229,168.125,52.104,168.125,50.612z M172.476,50.612
					c0-1.05-0.685-1.841-1.688-1.841s-1.688,0.791-1.688,1.841c0,1.034,0.685,1.825,1.688,1.825S172.476,51.646,172.476,50.612z"/>
				<path fill="#FFFFFF" d="M177.113,50.612c0-1.506,1.08-2.632,2.479-2.632c0.821,0,1.445,0.35,1.811,0.974v-6.647h0.928v10.801
					h-0.928v-0.852c-0.365,0.623-0.989,0.973-1.811,0.973C178.193,53.229,177.113,52.104,177.113,50.612z M181.434,50.612
					c0-1.065-0.67-1.81-1.674-1.81s-1.673,0.744-1.673,1.81c0,1.05,0.669,1.796,1.673,1.796S181.434,51.662,181.434,50.612z"/>
				<path fill="#FFFFFF" d="M186.315,52.438c0.776,0,1.231-0.273,1.567-0.654l0.578,0.563c-0.457,0.548-1.142,0.882-2.131,0.882
					c-1.627,0-2.738-1.125-2.738-2.616c0-1.506,1.172-2.632,2.633-2.632c1.597,0,2.57,1.248,2.54,2.967h-4.198
					C184.703,51.875,185.342,52.438,186.315,52.438z M187.791,50.172c-0.121-0.791-0.624-1.4-1.566-1.4
					c-0.867,0-1.477,0.548-1.629,1.4H187.791z"/>
				<path fill="#FFFFFF" d="M192.397,51.708l0.806-0.503c0.381,0.701,0.943,1.127,1.811,1.127c1.004,0,1.72-0.578,1.72-1.947v-7.622
					h1.004v7.651c0,1.872-1.156,2.814-2.692,2.814C193.676,53.229,192.869,52.575,192.397,51.708z"/>
				<path fill="#FFFFFF" d="M198.982,50.612c0-1.506,1.05-2.632,2.435-2.632c0.821,0,1.415,0.35,1.765,0.974v-0.852h0.928v5.005
					h-0.928v-0.852c-0.35,0.623-0.943,0.973-1.765,0.973C200.032,53.229,198.982,52.104,198.982,50.612z M203.212,50.612
					c0-1.065-0.639-1.81-1.612-1.81c-0.989,0-1.643,0.744-1.643,1.81c0,1.05,0.653,1.796,1.643,1.796
					C202.573,52.408,203.212,51.662,203.212,50.612z"/>
				<path fill="#FFFFFF" d="M205.66,48.103h0.928v0.806c0.319-0.607,0.958-0.928,1.719-0.928c1.096,0,1.917,0.7,1.917,2.054v3.073
					h-0.929v-2.982c0-0.882-0.426-1.308-1.217-1.308c-0.896,0-1.49,0.563-1.49,1.521v2.769h-0.928V48.103z"/>
				<path fill="#FFFFFF" d="M214.102,52.438c0.775,0,1.231-0.273,1.566-0.654l0.578,0.563c-0.457,0.548-1.141,0.882-2.13,0.882
					c-1.628,0-2.738-1.125-2.738-2.616c0-1.506,1.171-2.632,2.632-2.632c1.598,0,2.57,1.248,2.541,2.967h-4.199
					C212.488,51.875,213.127,52.438,214.102,52.438z M215.576,50.172c-0.121-0.791-0.623-1.4-1.566-1.4
					c-0.867,0-1.476,0.548-1.628,1.4H215.576z"/>
				<path fill="#FFFFFF" d="M217.645,45.638c0-0.364,0.304-0.639,0.639-0.639c0.334,0,0.639,0.274,0.639,0.639
					c0,0.365-0.305,0.64-0.639,0.64C217.948,46.277,217.645,46.003,217.645,45.638z M217.811,48.103h0.943v5.005h-0.943V48.103z"/>
				<path fill="#FFFFFF" d="M220.336,48.103h0.928v0.837c0.32-0.654,0.883-0.959,1.461-0.959c0.35,0,0.562,0.061,0.791,0.197
					l-0.32,0.792c-0.166-0.091-0.35-0.138-0.623-0.138c-0.746,0-1.309,0.609-1.309,1.629v2.646h-0.928V48.103z"/>
				<path fill="#FFFFFF" d="M224.002,50.612c0-1.506,1.171-2.632,2.662-2.632c1.475,0,2.646,1.126,2.646,2.632
					c0,1.491-1.172,2.616-2.646,2.616C225.173,53.229,224.002,52.104,224.002,50.612z M228.352,50.612
					c0-1.05-0.684-1.841-1.688-1.841s-1.689,0.791-1.689,1.841c0,1.034,0.686,1.825,1.689,1.825S228.352,51.646,228.352,50.612z"/>
			</g>
		</g>
		<g>
			<g>
				<path fill="#FFFFFF" d="M40.287,49.986H18.691c-0.428,0-10.549-0.066-14.64-5.803c-1.924-2.696-2.186-6.133-0.781-10.213
					C7.432,21.565,15.99,11.083,16.658,10.276c0.493-0.689,5.98-8.164,12.75-8.501c6.53-0.324,10.9,5.125,13.77,8.697
					c0.253,0.315,0.497,0.618,0.732,0.905c3.043,3.722,8.999,13.581,11.612,19.781c1.3,3.09,1.791,8.244-1.105,12.605
					C52.531,46.604,48.55,49.986,40.287,49.986z M29.939,5.242c-0.139,0-0.279,0.002-0.421,0.01
					c-5.51,0.275-10.373,7.089-10.42,7.158l-0.054,0.071C18.959,12.58,10.627,22.66,6.75,34.218
					c-1.091,3.166-0.938,5.756,0.45,7.704c3.219,4.52,11.996,4.584,12.084,4.584h20.408c5.425,0,9.422-1.7,11.557-4.916
					c2.12-3.193,1.957-7.266,0.854-9.887c-2.361-5.605-7.926-14.828-10.654-18.165c-0.226-0.276-0.461-0.568-0.704-0.871
					C38.227,9.534,34.778,5.242,29.939,5.242z"/>
			</g>
			<g>
				<path fill="#FFFFFF" d="M63.659,49.986H48.274c-0.289,0-7.108-0.047-10.233-4.116c-1.542-2.007-1.908-4.582-1.087-7.651
					l0.021-0.068c2.971-8.852,9.056-16.332,9.591-16.98c0.406-0.565,4.384-5.937,9.327-6.184c4.82-0.238,7.995,3.723,10.08,6.317
					c0.179,0.224,0.352,0.44,0.519,0.643c2.184,2.669,6.451,9.732,8.319,14.172c0.959,2.275,1.319,6.073-0.815,9.288
					C72.609,47.496,69.69,49.986,63.659,49.986z M40.188,38.449c-0.58,2.189-0.357,3.971,0.658,5.294
					c2.296,2.991,7.851,3.026,7.907,3.026H63.19c3.729,0,6.467-1.156,7.918-3.341c1.437-2.164,1.324-4.926,0.577-6.704
					c-1.66-3.942-5.572-10.426-7.492-12.774c-0.161-0.196-0.327-0.404-0.5-0.619c-1.792-2.23-4.252-5.306-7.686-5.132
					c-3.745,0.187-7.103,4.887-7.136,4.935l-0.053,0.07C48.761,23.275,42.917,30.346,40.188,38.449z"/>
			</g>
		</g>
	</g>
</g>
</svg>
