<?xml version="1.0" encoding="utf-8"?>
<!-- Generator: Adobe Illustrator 16.0.0, SVG Export Plug-In . SVG Version: 6.00 Build 0)  -->
<!DOCTYPE svg PUBLIC "-//W3C//DTD SVG 1.1//EN" "http://www.w3.org/Graphics/SVG/1.1/DTD/svg11.dtd">
<svg version="1.1" id="Layer_1" xmlns="http://www.w3.org/2000/svg" xmlns:xlink="http://www.w3.org/1999/xlink" x="0px" y="0px"
	 width="37.447px" height="37.364px" viewBox="0 0 37.447 37.364" enable-background="new 0 0 37.447 37.364" xml:space="preserve">
<path fill="#FFFFFF" d="M25.951,13.609c0,0,1.512-0.275,1.998-0.533c0,0-0.799,1.516-1.773,1.872c0,0,0.133,3.416-1.684,6.253
	c-1.82,2.84-6.745,8.117-14.994,3.504c0,0,2.617,0.491,5.366-1.395c0,0-2.971-0.602-3.372-2.862c0,0,0.846,0.133,1.509-0.044
	c0,0-2.97-0.711-2.927-3.773c0,0,0.798,0.487,1.687,0.355c0,0-2.706-1.775-1.109-5.055c0,0,3.37,3.947,7.806,3.988
	c0,0-0.663-4.213,3.548-4.611c2.219-0.135,3.016,1.156,3.016,1.156s1.553-0.357,2.396-0.89
	C27.418,11.575,27.328,12.764,25.951,13.609 M36.963,18.238C36.963,8.166,28.797,0,18.725,0C8.65,0,0.484,8.166,0.484,18.238
	S8.65,36.477,18.725,36.477C28.797,36.477,36.963,28.311,36.963,18.238"/>
<g>
</g>
<g>
</g>
<g>
</g>
<g>
</g>
<g>
</g>
<g>
</g>
</svg>
