<?xml version="1.0" encoding="utf-8"?>
<!-- Generator: Adobe Illustrator 16.0.0, SVG Export Plug-In . SVG Version: 6.00 Build 0)  -->
<!DOCTYPE svg PUBLIC "-//W3C//DTD SVG 1.1//EN" "http://www.w3.org/Graphics/SVG/1.1/DTD/svg11.dtd">
<svg version="1.1" id="Layer_1" xmlns="http://www.w3.org/2000/svg" xmlns:xlink="http://www.w3.org/1999/xlink" x="0px" y="0px"
	 width="249.858px" height="51.405px" viewBox="0 0 249.858 51.405" enable-background="new 0 0 249.858 51.405"
	 xml:space="preserve">
<g>
	<path fill="#FFFFFF" d="M85.073,41.428c-6.793-1.894-11.101-5.795-12.459-11.284l-0.011-0.05
		c-2.817-10.181,1.907-16.775,7.841-18.798c1.708-0.582,2.64-1.991,2.375-3.587c-0.547-3.303-5.896-6.2-11.445-6.2
		c-2.744,0-5.396,0.663-7.884,1.971c-4.649,2.445-9.061,7.071-13.22,12.498c-1.527-2.4-2.959-4.463-4.038-5.782
		c-0.24-0.294-0.487-0.604-0.745-0.925c-3.041-3.783-7.666-9.556-14.752-9.259c-7.071-0.291-11.713,5.473-14.75,9.255
		c-0.259,0.323-0.507,0.635-0.748,0.928C11.111,15.237,3.804,24.617,1.223,30.743c-1.487,3.533-2.108,9.334,1.029,14.061
		c1.934,2.912,6.009,6.371,14.429,6.445c0.003,0,0.008,0,0.012,0c0.088,0.002,0.168,0.008,0.258,0.008h24.918
		c0.134,0,0.256-0.009,0.389-0.012h42.375l0.138-0.004c2.375-0.177,4.054-1.736,4.276-3.974
		C89.271,45.004,87.846,42.204,85.073,41.428z M5.58,42.592c-2.118-3.189-1.866-7.469-0.675-10.297
		C7.382,26.418,15.118,16.65,18.33,12.725c0.246-0.303,0.504-0.624,0.771-0.954c2.711-3.374,6.438-8.023,11.534-7.764l0.101,0.004
		l0.099-0.004c0.141-0.007,0.279-0.012,0.418-0.012c4.872,0,8.483,4.496,11.118,7.777c0.266,0.331,0.522,0.65,0.768,0.953
		c1.178,1.438,2.845,3.894,4.585,6.71c-2.714,3.814-5.315,7.857-7.797,11.72c-1.646,2.561-3.2,4.98-4.656,7.112
		c-4.269,6.265-10.458,8.331-14.616,8.993H16.95C11.54,47.26,7.608,45.645,5.58,42.592z M41.868,47.26H31.091
		c2.579-1.591,5.12-3.804,7.235-6.908c1.484-2.175,3.052-4.615,4.712-7.196c2.104-3.275,4.381-6.812,6.766-10.234
		c1.902,3.296,3.691,6.711,4.812,9.374c1.115,2.646,1.282,6.762-0.855,9.98C51.597,45.539,47.483,47.26,41.868,47.26z
		 M84.555,47.545H54.28c1.227-0.984,2.141-2.051,2.81-3.057c3.16-4.76,2.626-10.379,1.21-13.745
		c-1.372-3.255-3.633-7.483-5.941-11.368c4.123-5.521,8.499-10.333,12.854-12.622c1.951-1.026,4.025-1.546,6.162-1.546
		c3.898,0,6.688,1.714,7.54,2.705c-3.794,1.387-6.919,4.138-8.825,7.78c-2.27,4.335-2.635,9.647-1.059,15.365
		c1.679,6.749,7.021,11.697,15.049,13.935c0.846,0.236,1.355,1.196,1.285,1.909C85.342,47.129,85.308,47.473,84.555,47.545z"/>
	<g>
		<g>
			<path fill="#FFFFFF" d="M122.04,15.906h-11.036v3.512h7.873v5.557h-7.873v4.438h11.501v5.982h-18.139V9.925h17.674V15.906z"/>
			<path fill="#FFFFFF" d="M133.271,29.413h10.536v5.982h-17.174V9.925h6.638V29.413z"/>
			<path fill="#FFFFFF" d="M182.091,9.462v25.933h-6.638v-10.69l-5.287,6.174h-2.122l-5.249-6.136v10.651h-6.638V9.462h2.122
				l10.844,13.236l10.844-13.236H182.091z"/>
			<path fill="#FFFFFF" d="M193.823,35.395h-6.638V9.925h6.638V35.395z"/>
			<path fill="#FFFFFF" d="M216.013,14.594l-4.438,3.396c-1.157-1.698-2.276-2.701-4.206-2.701c-1.312,0-2.277,0.463-2.277,1.621
				c0,0.965,0.617,1.428,2.201,2.084l2.932,1.235c4.246,1.775,6.522,3.936,6.522,7.68c0,5.016-4.091,7.949-9.34,7.949
				c-4.669,0-8.335-2.277-10.148-5.712l4.476-3.396c1.236,1.659,2.817,3.279,5.673,3.279c1.776,0,2.624-0.617,2.624-1.852
				c0-1.196-0.81-1.582-2.584-2.354l-2.625-1.159c-4.053-1.775-6.444-4.09-6.444-7.679c0-4.554,3.743-7.525,8.915-7.525
				C211.729,9.462,214.546,11.662,216.013,14.594z"/>
			<path fill="#FFFFFF" d="M240.286,15.906h-7.641v19.489h-6.637V15.906h-7.641V9.925h21.918V15.906z"/>
			<path fill="#FFFFFF" d="M249.858,35.395h-6.637V9.925h6.637V35.395z"/>
		</g>
		<g>
			<path fill="#FFFFFF" d="M145.384,51.256h-1.668V43.1h1.668V51.256z"/>
			<path fill="#FFFFFF" d="M155.729,45.733c0,1.568-1.224,2.644-2.942,2.644h-1.396v2.88h-1.669V43.1h3.064
				C154.505,43.1,155.729,44.137,155.729,45.733z M151.391,44.571v2.348h1.396c0.779,0,1.236-0.482,1.236-1.186
				c0-0.681-0.457-1.162-1.236-1.162H151.391z"/>
			<path fill="#FFFFFF" d="M163.354,50.194h-3.336l-0.457,1.062h-1.792l3.646-8.305h0.556l3.634,8.305h-1.793L163.354,50.194z
				 M161.687,46.079l-1.076,2.742h2.151L161.687,46.079z"/>
			<path fill="#FFFFFF" d="M176.135,43.1v8.305h-0.557l-4.721-5.043v4.895h-1.668v-8.305h0.544l4.732,5.005V43.1H176.135z"/>
			<path fill="#FFFFFF" d="M185.961,44.608h-3.818v1.655h2.806v1.421h-2.806v2.064h3.967v1.508h-5.636V43.1h5.487V44.608z"/>
			<path fill="#FFFFFF" d="M198.013,42.952v8.305h-1.669v-4.363l-2.052,2.584h-0.543l-2.052-2.584v4.363h-1.669v-8.305h0.544
				l3.448,4.424l3.447-4.424H198.013z"/>
			<path fill="#FFFFFF" d="M207.171,50.194h-3.336l-0.458,1.062h-1.792l3.646-8.305h0.557l3.633,8.305h-1.793L207.171,50.194z
				 M205.503,46.079l-1.075,2.742h2.15L205.503,46.079z"/>
		</g>
	</g>
</g>
<g>
</g>
<g>
</g>
<g>
</g>
<g>
</g>
<g>
</g>
<g>
</g>
</svg>
