<?xml version="1.0" encoding="utf-8"?>
<!-- Generator: Adobe Illustrator 16.0.0, SVG Export Plug-In . SVG Version: 6.00 Build 0)  -->
<!DOCTYPE svg PUBLIC "-//W3C//DTD SVG 1.1//EN" "http://www.w3.org/Graphics/SVG/1.1/DTD/svg11.dtd">
<svg version="1.1" id="Layer_1" xmlns="http://www.w3.org/2000/svg" xmlns:xlink="http://www.w3.org/1999/xlink" x="0px" y="0px"
	 width="37.447px" height="37.364px" viewBox="0 0 37.447 37.364" enable-background="new 0 0 37.447 37.364" xml:space="preserve">
<path fill="#FFFFFF" d="M21.777,18.562c0-1.689-1.367-3.052-3.054-3.052c-1.686,0-3.055,1.363-3.055,3.052
	c0,1.688,1.369,3.053,3.055,3.053C20.41,21.615,21.777,20.25,21.777,18.562 M22.523,14.762h3.99V10.77h-3.99V14.762z M26.657,24.52
	v-6.641h-2.695c0,0,0.066,5.824-5.238,5.824c-5.303,0-5.152-5.824-5.152-5.824h-2.732v6.26c0,2.762,2.23,2.457,2.23,2.457h10.646
	C26.906,26.596,26.657,24.52,26.657,24.52 M29.27,26.801c0,1.324-1.081,2.404-2.403,2.404H10.63c-1.32,0-2.401-1.08-2.401-2.404
	V10.565c0-1.323,1.081-2.406,2.401-2.406h16.236c1.322,0,2.403,1.083,2.403,2.406V26.801z M36.963,18.682
	c0-10.072-8.166-18.238-18.239-18.238C8.649,0.444,0.484,8.61,0.484,18.682c0,10.072,8.165,18.238,18.239,18.238
	C28.797,36.92,36.963,28.754,36.963,18.682"/>
<g>
</g>
<g>
</g>
<g>
</g>
<g>
</g>
<g>
</g>
<g>
</g>
</svg>
