<?xml version="1.0" encoding="utf-8"?>
<!-- Generator: Adobe Illustrator 16.0.0, SVG Export Plug-In . SVG Version: 6.00 Build 0)  -->
<!DOCTYPE svg PUBLIC "-//W3C//DTD SVG 1.1//EN" "http://www.w3.org/Graphics/SVG/1.1/DTD/svg11.dtd">
<svg version="1.1" id="Layer_1" xmlns="http://www.w3.org/2000/svg" xmlns:xlink="http://www.w3.org/1999/xlink" x="0px" y="0px"
	 width="37.447px" height="37.364px" viewBox="0 0 37.447 37.364" enable-background="new 0 0 37.447 37.364" xml:space="preserve">
<path fill="#FFFFFF" d="M18.455,14.637c0.092-0.094,0.135-0.226,0.135-0.391v-3.371c0-0.135-0.043-0.244-0.14-0.328
	c-0.091-0.082-0.216-0.123-0.366-0.123c-0.141,0-0.254,0.041-0.341,0.123c-0.09,0.084-0.135,0.193-0.135,0.328v3.371
	c0,0.172,0.042,0.301,0.125,0.396c0.081,0.093,0.198,0.14,0.351,0.14C18.239,14.782,18.363,14.731,18.455,14.637 M13.346,20.574
	h1.34v-1.219h-3.977v1.219h1.34v7.172h1.297V20.574z M16.803,27.746h1.15v-6.188h-1.15v4.695c-0.106,0.137-0.224,0.246-0.354,0.334
	c-0.13,0.086-0.237,0.131-0.322,0.131c-0.105,0-0.184-0.033-0.231-0.1c-0.052-0.066-0.073-0.172-0.073-0.318v-4.742h-1.15v5.17
	c0,0.373,0.067,0.645,0.203,0.832c0.134,0.184,0.335,0.273,0.602,0.273c0.215,0,0.438-0.064,0.666-0.195
	c0.23-0.131,0.45-0.324,0.661-0.576V27.746z M21.2,26.295c0,0.195-0.034,0.338-0.103,0.426c-0.062,0.086-0.169,0.131-0.307,0.131
	c-0.1,0-0.189-0.021-0.279-0.068c-0.088-0.043-0.179-0.115-0.271-0.215v-3.859c0.077-0.084,0.154-0.145,0.235-0.188
	c0.08-0.039,0.159-0.061,0.244-0.061c0.155,0,0.273,0.055,0.356,0.164c0.082,0.107,0.123,0.266,0.123,0.473V26.295z M22.113,27.477
	c0.182-0.236,0.271-0.576,0.271-1.014v-3.432c0-0.506-0.097-0.889-0.288-1.158c-0.191-0.264-0.47-0.395-0.833-0.395
	c-0.182,0-0.356,0.049-0.531,0.146c-0.172,0.098-0.337,0.242-0.491,0.432v-2.701h-1.163v8.391h1.163v-0.475
	c0.146,0.188,0.312,0.326,0.486,0.416c0.18,0.092,0.38,0.135,0.606,0.135C21.672,27.822,21.935,27.709,22.113,27.477 M24.438,23.836
	v-0.629c0-0.256,0.038-0.443,0.121-0.557c0.077-0.111,0.208-0.168,0.393-0.168c0.178,0,0.303,0.057,0.383,0.168
	c0.08,0.113,0.119,0.301,0.119,0.557v0.629H24.438z M26.206,27.432c0.286-0.32,0.431-0.799,0.431-1.432v-0.469h-1.184v0.434
	c0,0.363-0.037,0.598-0.112,0.705c-0.078,0.104-0.211,0.16-0.402,0.16c-0.182,0-0.312-0.064-0.388-0.188
	c-0.076-0.129-0.113-0.354-0.113-0.678v-1.17h2.199v-1.576c0-0.586-0.139-1.037-0.424-1.348c-0.28-0.312-0.688-0.471-1.214-0.471
	c-0.516,0-0.936,0.17-1.26,0.506c-0.324,0.34-0.487,0.775-0.487,1.312V26c0,0.596,0.147,1.062,0.443,1.404
	c0.298,0.34,0.703,0.508,1.217,0.508C25.486,27.912,25.918,27.752,26.206,27.432 M28.205,23.67c0.005,1.184-0.037,2.367-0.127,3.555
	c0,1.492-1.225,2.703-2.737,2.703c-2.158,0.096-4.368,0.133-6.617,0.129c-2.253,0.004-4.46-0.033-6.619-0.129
	c-1.512,0-2.737-1.211-2.737-2.703c-0.09-1.188-0.132-2.371-0.127-3.555c-0.005-1.182,0.037-2.365,0.127-3.553
	c0-1.49,1.226-2.705,2.737-2.705c2.05-0.084,4.148-0.127,6.283-0.127h0.336h0.332c2.138,0,4.233,0.043,6.285,0.127
	c1.513,0,2.737,1.214,2.737,2.705C28.168,21.305,28.21,22.488,28.205,23.67 M24.027,15.697h-1.15v-0.683
	c-0.213,0.25-0.431,0.445-0.661,0.573c-0.23,0.132-0.454,0.2-0.669,0.2c-0.267,0-0.468-0.094-0.603-0.277
	c-0.134-0.186-0.2-0.461-0.2-0.83V9.509h1.149v4.743c0,0.147,0.023,0.252,0.071,0.317c0.05,0.065,0.127,0.099,0.233,0.099
	c0.085,0,0.191-0.043,0.322-0.129c0.131-0.09,0.245-0.2,0.356-0.334V9.509h1.15V15.697z M19.766,14.153
	c0,0.532-0.149,0.945-0.445,1.248c-0.301,0.303-0.71,0.454-1.234,0.454c-0.501,0-0.908-0.158-1.208-0.47
	c-0.3-0.309-0.45-0.729-0.45-1.254l-0.003-3.211c0-0.477,0.154-0.858,0.465-1.143c0.311-0.283,0.728-0.427,1.251-0.427
	c0.474,0,0.864,0.149,1.17,0.45c0.303,0.3,0.455,0.684,0.455,1.156V14.153z M16.482,7.305l-1.507,4.912v3.479H13.68v-3.325
	l-1.544-5.066h1.307l0.841,3.354h0.081l0.804-3.354H16.482z M36.962,18.682c0-10.072-8.165-18.238-18.238-18.238
	C8.648,0.444,0.484,8.61,0.484,18.682c0,10.072,8.164,18.238,18.239,18.238C28.797,36.92,36.962,28.754,36.962,18.682"/>
<g>
</g>
<g>
</g>
<g>
</g>
<g>
</g>
<g>
</g>
<g>
</g>
</svg>
