<?xml version="1.0" encoding="utf-8"?>
<!-- Generator: Adobe Illustrator 16.0.0, SVG Export Plug-In . SVG Version: 6.00 Build 0)  -->
<!DOCTYPE svg PUBLIC "-//W3C//DTD SVG 1.1//EN" "http://www.w3.org/Graphics/SVG/1.1/DTD/svg11.dtd">
<svg version="1.1" id="Capa_1" xmlns="http://www.w3.org/2000/svg" xmlns:xlink="http://www.w3.org/1999/xlink" x="0px" y="0px"
	 width="50px" height="57.315px" viewBox="0 0 50 57.315" enable-background="new 0 0 50 57.315" xml:space="preserve">
<g>
	<path fill="#02B2A6" d="M50,25C50,11.19,38.806,0,24.998,0C11.191,0,0,11.19,0,25c0,12.284,8.859,22.487,20.534,24.593l4.945,7.723
		l4.132-7.749C41.214,47.401,50,37.231,50,25z"/>
	<g>
		<g>
			<g>
				<path fill="#FFFFFF" d="M10.476,31.962H7.567v0.934H9.64v1.462H7.567v1.172h3.033v1.579H5.817v-6.723h4.658V31.962z"/>
				<path fill="#FFFFFF" d="M13.438,35.531h2.777v1.579h-4.53v-6.723h1.753V35.531z"/>
				<path fill="#FFFFFF" d="M26.311,30.272v6.838H24.56v-2.815l-1.396,1.625H22.61l-1.387-1.618v2.809H19.47v-6.838h0.561
					l2.862,3.489l2.859-3.489H26.311z"/>
				<path fill="#FFFFFF" d="M29.407,37.11h-1.753v-6.723h1.753V37.11z"/>
				<path fill="#FFFFFF" d="M35.254,31.625l-1.167,0.892c-0.167-0.245-0.332-0.421-0.5-0.544c-0.17-0.102-0.369-0.169-0.609-0.169
					c-0.398,0-0.6,0.147-0.6,0.431c0,0.125,0.042,0.221,0.125,0.306c0.088,0.071,0.236,0.159,0.458,0.243l0.771,0.324
					c0.579,0.247,1.014,0.522,1.294,0.844c0.285,0.318,0.422,0.706,0.422,1.182c0,0.645-0.231,1.155-0.697,1.534
					c-0.461,0.375-1.051,0.564-1.762,0.564c-0.607,0-1.142-0.135-1.611-0.407c-0.464-0.267-0.822-0.642-1.066-1.098l1.18-0.898
					c0.424,0.578,0.924,0.875,1.498,0.875c0.458,0,0.686-0.172,0.686-0.492c0-0.15-0.042-0.265-0.14-0.336
					c-0.093-0.078-0.273-0.172-0.537-0.287l-0.694-0.309c-1.131-0.491-1.695-1.172-1.695-2.024c0-0.6,0.215-1.078,0.655-1.442
					c0.436-0.361,1.001-0.541,1.697-0.541C34.035,30.272,34.802,30.725,35.254,31.625z"/>
				<path fill="#FFFFFF" d="M41.657,31.962h-2.013v5.147h-1.753v-5.147h-2.013v-1.576h5.778V31.962z"/>
				<path fill="#FFFFFF" d="M44.184,37.11h-1.751v-6.723h1.751V37.11z"/>
			</g>
		</g>
		<g>
			<path fill="#FFFFFF" d="M15.298,42.599h-0.487v-2.373h0.487V42.599z"/>
			<path fill="#FFFFFF" d="M18.071,40.443c0.162,0.137,0.245,0.321,0.245,0.549c0,0.227-0.083,0.421-0.245,0.561
				c-0.157,0.142-0.363,0.213-0.615,0.213h-0.412v0.833h-0.48v-2.373h0.893C17.708,40.226,17.914,40.303,18.071,40.443z
				 M17.044,40.654v0.688h0.412c0.108,0,0.199-0.034,0.264-0.09c0.062-0.074,0.095-0.155,0.095-0.26
				c0-0.104-0.032-0.176-0.098-0.241c-0.066-0.064-0.154-0.097-0.261-0.097H17.044z"/>
			<path fill="#FFFFFF" d="M20.537,42.294h-0.977l-0.132,0.305h-0.521l1.061-2.415h0.164l1.059,2.415h-0.522L20.537,42.294z
				 M20.044,41.097l-0.312,0.797h0.631L20.044,41.097z"/>
			<path fill="#FFFFFF" d="M24.257,40.226v2.425h-0.16l-1.375-1.476v1.424h-0.489v-2.415h0.158l1.38,1.46v-1.418H24.257z"/>
			<path fill="#FFFFFF" d="M27.119,40.659h-1.111v0.49h0.814v0.408h-0.814v0.606h1.157v0.435h-1.644v-2.373h1.598V40.659z"/>
			<path fill="#FFFFFF" d="M30.629,40.184v2.415h-0.481V41.33l-0.604,0.751h-0.155l-0.598-0.751v1.269h-0.488v-2.415h0.162
				l1.002,1.292l1.007-1.292H30.629z"/>
			<path fill="#FFFFFF" d="M33.302,42.294h-0.975l-0.135,0.305h-0.519l1.059-2.415h0.166l1.052,2.415h-0.517L33.302,42.294z
				 M32.811,41.097l-0.31,0.797h0.627L32.811,41.097z"/>
		</g>
		<path fill="#FFFFFF" d="M39.523,22.19c-2.438-0.679-3.976-2.073-4.464-4.042l-0.005-0.022c-1.008-3.644,0.683-6.008,2.812-6.729
			c0.608-0.211,0.944-0.713,0.848-1.292c-0.195-1.178-2.112-2.223-4.104-2.223c-0.979,0-1.932,0.242-2.818,0.708
			c-1.67,0.878-3.247,2.535-4.736,4.484c-0.548-0.866-1.062-1.601-1.446-2.077c-0.088-0.107-0.179-0.215-0.27-0.327
			c-1.091-1.36-2.743-3.427-5.284-3.323c-2.531-0.104-4.195,1.962-5.281,3.323c-0.096,0.111-0.188,0.219-0.271,0.327
			c-1.479,1.811-4.096,5.167-5.021,7.365c-0.532,1.263-0.755,3.341,0.368,5.038c0.7,1.054,2.186,2.309,5.267,2.309h8.929
			c0.093,0,0.188,0,0.28-0.007h15.038l0.053-0.001c0.846-0.059,1.448-0.619,1.526-1.416C41.022,23.472,40.513,22.469,39.523,22.19z
			 M11.041,22.605c-0.757-1.146-0.669-2.677-0.243-3.688c0.89-2.109,3.664-5.609,4.812-7.017c0.092-0.105,0.183-0.217,0.279-0.334
			c0.969-1.209,2.305-2.879,4.13-2.783h0.036h0.037c0.047,0,0.096-0.005,0.146-0.005c1.743,0,3.042,1.607,3.985,2.788
			c0.097,0.119,0.188,0.232,0.277,0.334c0.419,0.518,1.015,1.397,1.642,2.408c-0.977,1.371-1.905,2.815-2.795,4.195
			c-0.588,0.917-1.15,1.783-1.667,2.555c-1.53,2.243-3.745,2.977-5.238,3.222h-1.326C13.177,24.282,11.772,23.7,11.041,22.605z
			 M24.046,24.282h-3.86c0.924-0.576,1.832-1.364,2.591-2.476c0.528-0.786,1.092-1.657,1.684-2.577
			c0.758-1.172,1.573-2.443,2.425-3.668c0.686,1.173,1.322,2.404,1.73,3.356c0.397,0.946,0.453,2.42-0.312,3.578
			C27.526,23.664,26.056,24.282,24.046,24.282z M39.337,24.381H28.492c0.44-0.356,0.765-0.733,1.007-1.098
			c1.13-1.701,0.94-3.713,0.431-4.919c-0.493-1.167-1.302-2.681-2.128-4.07c1.476-1.979,3.045-3.707,4.605-4.526
			c0.693-0.37,1.44-0.555,2.203-0.555c1.398,0,2.4,0.617,2.704,0.97c-1.358,0.498-2.476,1.481-3.161,2.792
			c-0.812,1.55-0.944,3.45-0.377,5.498c0.596,2.424,2.513,4.193,5.389,4.994c0.304,0.082,0.488,0.427,0.458,0.68
			C39.616,24.227,39.604,24.352,39.337,24.381z"/>
	</g>
</g>
<g>
</g>
<g>
</g>
<g>
</g>
<g>
</g>
<g>
</g>
<g>
</g>
</svg>
