<?xml version="1.0" encoding="utf-8"?>
<!-- Generator: Adobe Illustrator 16.0.0, SVG Export Plug-In . SVG Version: 6.00 Build 0)  -->
<!DOCTYPE svg PUBLIC "-//W3C//DTD SVG 1.1//EN" "http://www.w3.org/Graphics/SVG/1.1/DTD/svg11.dtd">
<svg version="1.1" id="Layer_1" xmlns="http://www.w3.org/2000/svg" xmlns:xlink="http://www.w3.org/1999/xlink" x="0px" y="0px"
	 width="11.29px" height="10.519px" viewBox="0 0 11.29 10.519" enable-background="new 0 0 11.29 10.519" xml:space="preserve">
<g>
	<g>
		<path fill-rule="evenodd" clip-rule="evenodd" fill="#19B2A7" d="M2.869,0.484C2.637-0.073,2.407,0.023,2.244,0.023
			C2.082,0.023,1.897,0,1.714,0C1.526,0,1.227,0.068,0.969,0.345C0.719,0.625,0,1.296,0,2.662C0,4.029,0.995,5.35,1.135,5.537
			C1.271,5.72,3.055,8.618,5.878,9.73c2.823,1.109,2.823,0.74,3.334,0.691c0.509-0.045,1.642-0.669,1.874-1.319
			c0.232-0.647,0.232-1.206,0.164-1.318c-0.071-0.12-0.256-0.188-0.535-0.327C10.438,7.32,9.074,6.648,8.818,6.554
			C8.564,6.458,8.376,6.417,8.193,6.691C8.008,6.972,7.478,7.595,7.315,7.784C7.152,7.967,6.99,7.99,6.713,7.852
			C6.434,7.712,5.54,7.419,4.478,6.474C3.654,5.738,3.094,4.828,2.934,4.548C2.771,4.271,2.916,4.121,3.055,3.982
			C3.181,3.857,3.331,3.66,3.474,3.498C3.61,3.335,3.654,3.219,3.748,3.033C3.842,2.85,3.796,2.686,3.725,2.546
			C3.654,2.408,3.102,1.041,2.869,0.484z"/>
	</g>
</g>
<g>
</g>
<g>
</g>
<g>
</g>
<g>
</g>
<g>
</g>
<g>
</g>
<g>
</g>
<g>
</g>
<g>
</g>
<g>
</g>
<g>
</g>
<g>
</g>
<g>
</g>
<g>
</g>
<g>
</g>
</svg>
