<?xml version="1.0" encoding="utf-8"?>
<!-- Generator: Adobe Illustrator 16.0.0, SVG Export Plug-In . SVG Version: 6.00 Build 0)  -->
<!DOCTYPE svg PUBLIC "-//W3C//DTD SVG 1.1//EN" "http://www.w3.org/Graphics/SVG/1.1/DTD/svg11.dtd">
<svg version="1.1" id="Layer_1" xmlns="http://www.w3.org/2000/svg" xmlns:xlink="http://www.w3.org/1999/xlink" x="0px" y="0px"
	 width="30.214px" height="30.214px" viewBox="0 0 30.214 30.214" enable-background="new 0 0 30.214 30.214" xml:space="preserve">
<g>
	<circle fill="#1BB2A7" cx="15.107" cy="15.107" r="15.107"/>
	<g>
		<g>
			<path fill-rule="evenodd" clip-rule="evenodd" fill="#FFFFFF" d="M11.851,9.505c-0.271-0.653-0.542-0.541-0.733-0.541
				c-0.189,0-0.406-0.027-0.622-0.027c-0.22,0-0.571,0.08-0.873,0.405c-0.294,0.328-1.138,1.115-1.138,2.717
				c0,1.604,1.168,3.154,1.332,3.373c0.161,0.216,2.252,3.613,5.564,4.919c3.312,1.302,3.312,0.87,3.91,0.812
				c0.599-0.053,1.928-0.787,2.199-1.548c0.273-0.761,0.273-1.415,0.192-1.548c-0.084-0.14-0.3-0.22-0.628-0.383
				c-0.324-0.161-1.925-0.95-2.225-1.059c-0.298-0.112-0.52-0.163-0.733,0.161c-0.218,0.328-0.84,1.061-1.03,1.28
				c-0.191,0.216-0.381,0.243-0.707,0.08c-0.327-0.163-1.375-0.508-2.622-1.615c-0.966-0.865-1.623-1.932-1.812-2.259
				c-0.189-0.326-0.02-0.504,0.143-0.665c0.147-0.146,0.324-0.379,0.491-0.569c0.161-0.19,0.212-0.326,0.322-0.545
				c0.11-0.216,0.056-0.407-0.028-0.57C12.771,11.761,12.125,10.158,11.851,9.505z"/>
		</g>
	</g>
</g>
<g>
</g>
<g>
</g>
<g>
</g>
<g>
</g>
<g>
</g>
<g>
</g>
</svg>
