<?xml version="1.0" encoding="utf-8"?>
<!-- Generator: Adobe Illustrator 16.0.0, SVG Export Plug-In . SVG Version: 6.00 Build 0)  -->
<!DOCTYPE svg PUBLIC "-//W3C//DTD SVG 1.1//EN" "http://www.w3.org/Graphics/SVG/1.1/DTD/svg11.dtd">
<svg version="1.1" id="Layer_1" xmlns="http://www.w3.org/2000/svg" xmlns:xlink="http://www.w3.org/1999/xlink" x="0px" y="0px"
	 width="28.85px" height="29.045px" viewBox="0 0 28.85 29.045" enable-background="new 0 0 28.85 29.045" xml:space="preserve">
<g>
	<g>
		<g>
			<g>
				<g>
					<path fill="#1BB2A7" d="M0,29.045l2.732-8.123C1.525,18.816,0.89,16.423,0.89,13.98C0.89,6.271,7.162,0,14.869,0
						c7.709,0,13.98,6.271,13.98,13.98S22.578,27.96,14.869,27.96c-2.264,0-4.503-0.55-6.495-1.596L0,29.045z"/>
				</g>
			</g>
		</g>
		<g>
			<g>
				<path fill-rule="evenodd" clip-rule="evenodd" fill="#FFFFFF" d="M11.752,8.48c-0.271-0.653-0.543-0.541-0.734-0.541
					c-0.189,0-0.406-0.027-0.621-0.027c-0.221,0-0.572,0.08-0.873,0.405c-0.295,0.328-1.139,1.115-1.139,2.717
					c0,1.604,1.168,3.154,1.332,3.373c0.162,0.216,2.252,3.613,5.564,4.919c3.312,1.302,3.312,0.87,3.911,0.812
					c0.599-0.053,1.927-0.787,2.198-1.548c0.273-0.761,0.273-1.415,0.193-1.548c-0.084-0.14-0.301-0.22-0.629-0.383
					c-0.324-0.161-1.924-0.95-2.225-1.059c-0.297-0.112-0.519-0.163-0.732,0.161c-0.219,0.328-0.84,1.061-1.03,1.28
					c-0.191,0.216-0.382,0.243-0.707,0.08c-0.327-0.163-1.376-0.508-2.622-1.615c-0.967-0.865-1.623-1.932-1.812-2.259
					c-0.19-0.326-0.02-0.504,0.142-0.665c0.148-0.146,0.324-0.379,0.492-0.569c0.16-0.19,0.211-0.326,0.322-0.545
					c0.109-0.216,0.056-0.407-0.028-0.57C12.672,10.736,12.025,9.134,11.752,8.48z"/>
			</g>
		</g>
	</g>
</g>
<g>
</g>
<g>
</g>
<g>
</g>
<g>
</g>
<g>
</g>
<g>
</g>
</svg>
