<?xml version="1.0" encoding="utf-8"?>
<!-- Generator: Adobe Illustrator 16.0.0, SVG Export Plug-In . SVG Version: 6.00 Build 0)  -->
<!DOCTYPE svg PUBLIC "-//W3C//DTD SVG 1.1//EN" "http://www.w3.org/Graphics/SVG/1.1/DTD/svg11.dtd">
<svg version="1.1" id="Layer_1" xmlns="http://www.w3.org/2000/svg" xmlns:xlink="http://www.w3.org/1999/xlink" x="0px" y="0px"
	 width="25.775px" height="25.95px" viewBox="0 0 25.775 25.95" enable-background="new 0 0 25.775 25.95" xml:space="preserve">
<g>
	<g>
		<g>
			<g>
				<path fill="#19B2A7" d="M0,25.95l2.441-7.257c-1.079-1.882-1.647-4.021-1.647-6.202C0.794,5.603,6.398,0,13.285,0
					s12.49,5.603,12.49,12.491c0,6.888-5.604,12.489-12.49,12.489c-2.023,0-4.023-0.491-5.804-1.426L0,25.95z M13.285,1.227
					c-6.211,0-11.264,5.052-11.264,11.264c0,2.054,0.559,4.066,1.616,5.814l0.146,0.244l-1.847,5.49l5.672-1.815l0.232,0.129
					c1.655,0.915,3.538,1.399,5.443,1.399c6.209,0,11.263-5.052,11.263-11.262C24.548,6.279,19.494,1.227,13.285,1.227z
					 M13.285,23.089c-1.98,0-3.904-0.548-5.583-1.591l-4.717,1.51l1.534-4.562c-1.201-1.763-1.834-3.813-1.834-5.954
					c0-5.846,4.754-10.6,10.599-10.6s10.601,4.753,10.601,10.6C23.886,18.336,19.13,23.089,13.285,23.089z M7.884,20.15l0.246,0.162
					c1.535,1.013,3.318,1.549,5.156,1.549c5.169,0,9.373-4.203,9.373-9.37c0-5.168-4.204-9.372-9.373-9.372
					c-5.167,0-9.372,4.204-9.372,9.372c0,1.985,0.617,3.886,1.785,5.493l0.186,0.257L4.923,21.1L7.884,20.15z"/>
			</g>
		</g>
		<g>
			<g>
				<path fill="#19B2A7" d="M13.285,23.089c-1.98,0-3.904-0.548-5.583-1.591l-4.717,1.51l1.534-4.562
					c-1.201-1.763-1.834-3.813-1.834-5.954c0-5.846,4.754-10.6,10.599-10.6s10.601,4.753,10.601,10.6
					C23.886,18.336,19.13,23.089,13.285,23.089z M7.884,20.15l0.246,0.162c1.535,1.013,3.318,1.549,5.156,1.549
					c5.169,0,9.373-4.203,9.373-9.37c0-5.168-4.204-9.372-9.373-9.372c-5.167,0-9.372,4.204-9.372,9.372
					c0,1.985,0.617,3.886,1.785,5.493l0.186,0.257L4.923,21.1L7.884,20.15z"/>
			</g>
		</g>
		<g>
			<g>
				<path fill-rule="evenodd" clip-rule="evenodd" fill="#19B2A7" d="M10.499,7.577c-0.243-0.583-0.484-0.483-0.655-0.483
					c-0.17,0-0.363-0.025-0.556-0.025c-0.196,0-0.511,0.072-0.78,0.362C8.245,7.724,7.492,8.427,7.492,9.858
					c0,1.433,1.043,2.817,1.189,3.014c0.145,0.193,2.012,3.229,4.971,4.395c2.96,1.163,2.96,0.777,3.495,0.727
					c0.534-0.048,1.722-0.704,1.964-1.383c0.245-0.68,0.245-1.265,0.172-1.384c-0.074-0.124-0.268-0.196-0.561-0.342
					c-0.29-0.144-1.72-0.849-1.988-0.945c-0.266-0.101-0.463-0.146-0.654,0.144c-0.195,0.293-0.751,0.947-0.921,1.144
					c-0.171,0.193-0.341,0.218-0.631,0.072c-0.293-0.146-1.229-0.454-2.344-1.443c-0.863-0.772-1.45-1.726-1.618-2.019
					c-0.17-0.291-0.017-0.449,0.127-0.594c0.132-0.131,0.29-0.339,0.439-0.509c0.143-0.17,0.189-0.292,0.288-0.487
					c0.098-0.192,0.05-0.363-0.025-0.509C11.322,9.592,10.744,8.16,10.499,7.577z"/>
			</g>
		</g>
	</g>
</g>
<g>
</g>
<g>
</g>
<g>
</g>
<g>
</g>
<g>
</g>
<g>
</g>
<g>
</g>
<g>
</g>
<g>
</g>
<g>
</g>
<g>
</g>
<g>
</g>
<g>
</g>
<g>
</g>
<g>
</g>
</svg>
